<?xml version="1.0" encoding="utf-8"?>
<!-- Generator: Adobe Illustrator 25.2.1, SVG Export Plug-In . SVG Version: 6.00 Build 0)  -->
<svg version="1.1" id="Capa_1" xmlns="http://www.w3.org/2000/svg" xmlns:xlink="http://www.w3.org/1999/xlink" x="0px" y="0px"
	 viewBox="0 0 17.26 5.61" style="enable-background:new 0 0 17.26 5.61;" xml:space="preserve">
<style type="text/css">
	.st0{fill:#1E1916;}
	.st1{fill:#D5B36E;}
	.st2{fill:#1E2020;}
	.st3{fill:#6E6A6A;}
	.st4{fill:#55544E;}
	.st5{fill:#1F2020;}
	.st6{fill:#1A90A3;}
	.st7{fill:#9BBAC9;}
	.st8{fill:#464545;}
	.st9{fill:#363030;}
	.st10{fill:#5E5859;}
	.st11{fill:#201617;}
</style>
<g>
	<path d="M2.18,1.02c0.01,1.09-0.09,2.35-0.29,3.76C1.81,4.79,1.77,4.85,1.75,4.97C1.73,5.1,1.69,5.18,1.63,5.19
		c0-0.02-0.01-0.05-0.01-0.07c0-0.03,0.01-0.07,0.02-0.13c0.01-0.06,0.02-0.11,0.02-0.14c0-0.04-0.01-0.08-0.03-0.12
		C1.6,4.75,1.58,4.77,1.58,4.81c0,0.04,0,0.07-0.01,0.11c0,0.03-0.03,0.04-0.08,0.04C1.5,4.87,1.44,4.79,1.31,4.72
		c-0.03-0.07-0.08-0.17-0.17-0.3C1.13,4.42,1.12,4.46,1.11,4.53C1.09,4.58,1.07,4.6,1.04,4.6c-0.02,0-0.04-0.01-0.06-0.02
		C0.9,4.48,0.85,4.33,0.82,4.14C0.8,3.98,0.78,3.82,0.76,3.66C0.73,3.32,0.7,2.99,0.66,2.66C0.61,2.28,0.49,1.98,0.29,1.78
		C0.24,1.69,0.22,1.63,0.22,1.58c0-0.02,0-0.03,0.01-0.05l0.13,0.12C0.37,1.63,0.38,1.6,0.38,1.57c0-0.04-0.03-0.1-0.08-0.16
		C0.24,1.34,0.21,1.29,0.21,1.25c0-0.03,0.02-0.06,0.05-0.1C0.28,1.16,0.3,1.18,0.33,1.21c0-0.02-0.01-0.03-0.01-0.05
		c0-0.02,0.01-0.07,0.03-0.13c0.02-0.06,0.03-0.11,0.03-0.14c0.09,0.02,0.14,0.08,0.16,0.19C0.56,1.22,0.59,1.3,0.62,1.33
		C0.61,1.38,0.61,1.44,0.61,1.49c0,0.15,0.04,0.33,0.11,0.55c0.1,0.3,0.15,0.48,0.16,0.54c0.16,0.29,0.38,0.73,0.67,1.33h0.02
		C1.57,3.83,1.6,3.68,1.64,3.46C1.68,3.27,1.7,3.12,1.7,3.02c0-0.1-0.01-0.19-0.04-0.27C1.62,2.78,1.58,2.82,1.54,2.9
		c-0.05,0.08-0.08,0.14-0.1,0.16C1.42,3.04,1.42,3.02,1.42,2.99c0-0.09,0.05-0.18,0.16-0.26C1.59,2.71,1.65,2.7,1.74,2.7
		C1.79,2.52,1.82,2.29,1.83,2c0-0.24,0.01-0.48,0.02-0.72C1.81,1.25,1.8,1.22,1.8,1.19c0-0.02,0.01-0.05,0.03-0.1
		c0.02-0.05,0.03-0.08,0.03-0.11c0-0.03-0.01-0.06-0.03-0.09c0.03,0,0.06-0.04,0.08-0.1C1.94,0.73,1.97,0.7,2,0.7
		c0.02,0,0.05,0.02,0.09,0.05L2.18,1.02z M0.49,1.3V1.24L0.45,1.11L0.49,1.3z M1.04,4.48C1.06,4.4,1.07,4.32,1.07,4.24
		c0-0.14-0.03-0.29-0.09-0.47C0.92,3.63,0.87,3.48,0.81,3.33c0.04,0.43,0.09,0.74,0.17,0.92C1,4.27,1,4.29,1,4.32
		c0,0.01,0,0.03,0,0.05C1,4.39,1,4.4,1,4.41C1,4.44,1.01,4.46,1.04,4.48z M1.22,3.57C1.18,3.39,1.1,3.22,0.98,3.05
		C1,3.11,1.02,3.16,1.04,3.22c0.02,0.07,0.03,0.12,0.03,0.18c0,0,0.02,0.04,0.06,0.11C1.15,3.54,1.18,3.57,1.22,3.57z M1.44,4.69
		c0.01-0.04,0.02-0.07,0.02-0.11c0-0.07-0.03-0.15-0.09-0.23c-0.1-0.14-0.15-0.21-0.15-0.22l0.09,0.35
		c0.02,0.04,0.03,0.08,0.05,0.13C1.38,4.65,1.4,4.68,1.44,4.69z M1.31,3.74L1.26,3.66c0.01,0,0.02,0.02,0.02,0.05
		C1.3,3.74,1.3,3.75,1.31,3.74z M1.47,4.24C1.45,4.18,1.4,4.09,1.33,3.98C1.35,4.05,1.4,4.14,1.47,4.24z M1.91,2.82L1.74,3.84
		C1.71,4.04,1.7,4.16,1.7,4.18c0,0.08,0.02,0.14,0.05,0.2C1.78,4.12,1.82,3.86,1.85,3.6C1.9,3.29,1.92,3.03,1.91,2.82z M2.09,1.12
		C2.1,1,2.08,0.91,2.02,0.85c-0.01,0.03,0,0.07,0.03,0.13c0.03,0.05,0.04,0.09,0.04,0.11C2.09,1.1,2.09,1.11,2.09,1.12L2.09,1.12z
		 M2.11,1.64V1.23C2.1,1.27,2.1,1.41,2.11,1.64z"/>
	<path d="M5.2,4.09c0,0.03-0.02,0.07-0.05,0.12C5.12,4.26,5.1,4.29,5.1,4.31c0,0.02,0.01,0.03,0.02,0.04
		C5.09,4.43,4.99,4.54,4.83,4.68C4.66,4.77,4.5,4.86,4.34,4.95C4.14,5.06,3.96,5.12,3.8,5.12c-0.1,0-0.2-0.02-0.29-0.06
		c-0.5-0.19-0.84-0.46-1.04-0.8l-0.1-0.23c-0.04-0.2-0.05-0.33-0.05-0.37c0.14-0.77,0.38-1.41,0.7-1.92C3.33,1.38,3.67,1.2,4.04,1.2
		c0.1,0,0.19,0.01,0.29,0.04c0.06,0.02,0.15,0.07,0.26,0.15c0.11,0.08,0.2,0.13,0.27,0.15c0.3,0.26,0.46,0.64,0.46,1.15
		c0,0.17-0.02,0.41-0.05,0.71C5.22,3.73,5.2,3.96,5.2,4.09z M2.77,4.46C2.7,4.26,2.6,3.97,2.45,3.57C2.44,3.97,2.55,4.27,2.77,4.46z
		 M3.18,4.46c-0.2-0.3-0.32-0.64-0.38-1.01C2.78,3.81,2.87,4.13,3.06,4.4c0.06,0.05,0.1,0.07,0.1,0.07
		C3.17,4.47,3.18,4.46,3.18,4.46z M2.82,3.38V3.33H2.8v0.05H2.82z M3.75,2.47v-0.5H3.72c-0.03,0.02-0.07,0-0.12-0.05
		C3.52,1.96,3.47,2.01,3.45,2.06C3.11,2.3,2.94,2.69,2.94,3.23c0,0.16,0.02,0.33,0.05,0.5C3,3.48,3.08,3.24,3.21,3.01
		C3.35,2.78,3.53,2.6,3.75,2.47z M3.15,1.95L3.03,2.06C3.02,2.07,3.01,2.08,3.01,2.1c0,0.02,0.01,0.03,0.02,0.03
		C3.07,2.11,3.11,2.05,3.15,1.95z M4.91,3.43c0.03-0.2,0.04-0.34,0.04-0.42c0-0.22-0.05-0.38-0.16-0.47
		c-0.11-0.1-0.25-0.15-0.44-0.15c-0.07,0-0.13,0.01-0.2,0.02C4.14,2.42,4.07,2.46,3.94,2.51C3.86,2.55,3.81,2.61,3.81,2.67
		c0,0.03,0.01,0.06,0.02,0.1C3.82,2.76,3.81,2.74,3.79,2.7C3.77,2.67,3.75,2.65,3.73,2.64C3.55,2.75,3.4,2.9,3.28,3.09
		c-0.11,0.2-0.17,0.4-0.17,0.61c0,0.24,0.06,0.42,0.19,0.54c0,0.08,0.03,0.15,0.1,0.2C3.47,4.5,3.53,4.56,3.6,4.61
		C3.75,4.62,3.9,4.6,4.07,4.55C4.3,4.48,4.49,4.34,4.65,4.11C4.8,3.91,4.88,3.68,4.91,3.43z M3.45,1.6H3.41L3.34,1.67L3.45,1.6z
		 M3.9,4.89c-0.02,0-0.07-0.02-0.17-0.05C3.66,4.83,3.6,4.82,3.56,4.82c-0.03,0-0.06,0-0.09,0.01v0.04C3.48,4.88,3.5,4.9,3.53,4.92
		C3.71,4.95,3.83,4.94,3.9,4.89z M4.86,2.43L4.81,2.28L4.6,1.99C4.42,1.89,4.29,1.84,4.21,1.84c-0.04,0-0.08,0.01-0.11,0.02
		l0.02,0.02L4.08,1.91c-0.03,0-0.04-0.01-0.05-0.02c0-0.03,0.01-0.04,0.02-0.05H3.94v0.05C3.89,1.93,3.86,2,3.86,2.11
		c0,0.02,0,0.04,0,0.08c0,0.04,0.01,0.06,0.01,0.08c0,0.06-0.01,0.11-0.02,0.14c0.18-0.09,0.37-0.13,0.56-0.13
		C4.59,2.28,4.74,2.33,4.86,2.43z M4.91,2.23L4.88,2.04C4.82,1.93,4.76,1.81,4.71,1.7C4.63,1.56,4.53,1.5,4.39,1.51l0.02,0.06
		c-0.04,0-0.08,0.01-0.13,0.02C4.24,1.61,4.19,1.62,4.15,1.62V1.58c-0.05,0-0.09,0.01-0.14,0.04C3.97,1.65,3.92,1.68,3.88,1.71
		l0.29,0.01c0.15,0.01,0.3,0.07,0.46,0.18C4.76,1.99,4.86,2.11,4.91,2.23z M4.34,1.39c-0.02,0-0.06-0.02-0.12-0.04
		C4.17,1.33,4.13,1.32,4.1,1.32c-0.03,0-0.06,0.01-0.09,0.02l0.04,0.13L4.34,1.39z M4.25,4.63C4.2,4.65,4.12,4.68,4.03,4.73
		C4.05,4.74,4.08,4.75,4.1,4.75C4.16,4.75,4.21,4.71,4.25,4.63z M4.7,4.33L4.39,4.7c0.08-0.02,0.14-0.07,0.2-0.16
		C4.63,4.47,4.66,4.4,4.7,4.33z M5.11,3.88C5.05,4,4.98,4.13,4.93,4.25C4.85,4.39,4.78,4.51,4.7,4.59C4.89,4.49,5.03,4.26,5.11,3.88
		z M5.15,2.28c-0.03-0.28-0.13-0.49-0.3-0.63C4.99,1.87,5.09,2.08,5.15,2.28z"/>
	<path d="M11.25,3.51c-0.01,0.04-0.04,0.08-0.11,0.11C11.05,3.65,11,3.68,10.98,3.71C10.68,4.1,10.22,4.4,9.6,4.6
		C9.58,4.61,9.58,4.64,9.58,4.66c0,0.02,0,0.04,0.01,0.06c0,0.03,0.01,0.04,0.01,0.06c0,0.04-0.02,0.06-0.05,0.08
		c0,0.06,0,0.12,0,0.19c0,0.07-0.02,0.13-0.05,0.16c-0.07-0.03-0.12-0.1-0.15-0.21C9.3,4.86,9.27,4.77,9.23,4.74
		C9.21,4.73,9.19,4.73,9.17,4.73c-0.04,0-0.07,0.02-0.11,0.05C9.03,4.81,9,4.84,8.97,4.88c-0.02,0.1-0.05,0.15-0.09,0.13
		c-0.02-0.02-0.03-0.05-0.03-0.1c0.01-0.05,0-0.08-0.02-0.1C8.82,4.8,8.79,4.79,8.75,4.79c-0.02,0-0.04,0-0.07,0
		c-0.03,0-0.05,0.01-0.06,0.01c-0.07,0-0.11-0.04-0.12-0.11L8.41,4.65C8.37,4.65,8.35,4.63,8.35,4.6C8.41,4.54,8.49,4.49,8.6,4.43
		c0.13-0.07,0.22-0.11,0.26-0.15c0.03-1,0.05-1.54,0.05-1.64c0-0.3-0.01-0.58-0.03-0.84C8.78,1.76,8.7,1.75,8.65,1.78
		C8.61,1.8,8.58,1.82,8.54,1.85C8.51,1.87,8.49,1.9,8.48,1.93l0.08,0.15C8.53,2.07,8.49,2.04,8.44,2c0-0.14,0.02-0.22,0.05-0.26
		L8.31,1.65c0.04-0.07,0.12-0.12,0.25-0.15C8.71,1.47,8.8,1.43,8.84,1.4c0.04,0.02,0.08,0.02,0.12-0.01
		c0.04-0.03,0.07-0.04,0.08-0.04c0.02,0,0.04,0.02,0.06,0.07c0.15-0.03,0.3-0.05,0.45-0.05c0.6,0,1.08,0.22,1.42,0.67
		c0.21,0.14,0.31,0.37,0.31,0.69c0,0.11-0.01,0.22-0.04,0.35c-0.02,0.05-0.05,0.11-0.08,0.16c-0.03,0.07-0.05,0.13-0.05,0.17
		c0,0.02,0,0.04,0.01,0.06C11.17,3.45,11.21,3.46,11.25,3.51z M8.65,2.15c0,0.05,0,0.07-0.01,0.08L8.56,2.12
		C8.56,2.12,8.59,2.13,8.65,2.15z M8.82,4.44c-0.03,0-0.07,0.01-0.11,0.04C8.67,4.51,8.64,4.53,8.62,4.53
		C8.7,4.52,8.76,4.49,8.82,4.44z M8.83,4.64c-0.02,0.01-0.05,0.01-0.1,0.02c-0.05,0-0.09,0.02-0.11,0.05l0.02,0.02
		c0.01,0,0.05-0.01,0.12-0.01C8.82,4.71,8.84,4.68,8.83,4.64z M9.17,4.55C9.11,4.55,9.05,4.56,9,4.6c0,0.03,0.01,0.05,0.02,0.06
		c0.02,0,0.05-0.02,0.08-0.05C9.13,4.57,9.15,4.55,9.17,4.55z M9.19,4.12C9.18,3.83,9.16,3.54,9.15,3.25
		C9.13,2.91,9.09,2.64,9.04,2.41c-0.02,0.18-0.02,0.48-0.01,0.9c0.01,0.42,0.01,0.72-0.01,0.91c0,0,0.04-0.01,0.11-0.03
		C9.17,4.18,9.19,4.15,9.19,4.12z M9.49,1.64l-0.3-0.09c0.07,0.06,0.17,0.09,0.28,0.09C9.48,1.64,9.49,1.64,9.49,1.64z M10.92,2.73
		c-0.12-0.32-0.35-0.55-0.7-0.7c-0.25-0.11-0.59-0.17-1.01-0.2c-0.01,0.2,0.04,0.51,0.13,0.95c-0.01-0.12-0.03-0.3-0.07-0.54
		c-0.03-0.11-0.03-0.21,0-0.29c0.05-0.02,0.11,0.01,0.16,0.06C9.46,2.34,9.49,2.67,9.52,3C9.55,3.4,9.56,3.74,9.56,4.03
		c0.27-0.07,0.51-0.16,0.74-0.26c0.21-0.18,0.35-0.32,0.42-0.4c0.14-0.17,0.21-0.34,0.21-0.51C10.93,2.82,10.93,2.77,10.92,2.73z
		 M10.7,3.88c-0.04,0.02-0.23,0.15-0.58,0.39c0.1-0.05,0.21-0.11,0.31-0.17C10.55,4.04,10.63,3.97,10.7,3.88z M11.2,2.52
		c0-0.02-0.01-0.04-0.02-0.07c-0.01-0.03-0.02-0.05-0.02-0.07c0.01,0.01,0.02,0.04,0.01,0.07C11.17,2.49,11.18,2.51,11.2,2.52z"/>
	<path d="M14.22,3.85c0,0.03-0.02,0.07-0.05,0.12c-0.03,0.05-0.05,0.09-0.05,0.11c0,0.02,0.01,0.03,0.02,0.04
		c-0.03,0.08-0.12,0.19-0.29,0.33c-0.16,0.09-0.33,0.18-0.49,0.27c-0.2,0.11-0.38,0.16-0.53,0.16c-0.1,0-0.2-0.02-0.29-0.06
		c-0.5-0.19-0.84-0.46-1.04-0.8l-0.1-0.23c-0.04-0.2-0.05-0.33-0.05-0.37c0.14-0.77,0.38-1.41,0.7-1.92
		c0.3-0.36,0.64-0.54,1.01-0.54c0.1,0,0.19,0.01,0.29,0.04c0.06,0.02,0.15,0.07,0.26,0.15c0.11,0.08,0.2,0.13,0.27,0.15
		c0.3,0.26,0.46,0.64,0.46,1.15c0,0.17-0.02,0.41-0.05,0.71C14.25,3.49,14.23,3.72,14.22,3.85z M11.8,4.23
		c-0.07-0.2-0.18-0.5-0.32-0.89C11.47,3.74,11.58,4.03,11.8,4.23z M12.21,4.22c-0.2-0.3-0.32-0.64-0.38-1.01
		c-0.02,0.36,0.06,0.68,0.26,0.95c0.06,0.05,0.1,0.07,0.1,0.07C12.2,4.23,12.2,4.23,12.21,4.22z M11.85,3.14V3.09h-0.02v0.05H11.85z
		 M12.78,2.24v-0.5h-0.03c-0.03,0.02-0.07,0-0.12-0.05c-0.08,0.04-0.13,0.08-0.15,0.13c-0.34,0.25-0.51,0.64-0.51,1.17
		c0,0.16,0.02,0.33,0.05,0.5C12.03,3.24,12.1,3,12.24,2.77C12.38,2.54,12.56,2.37,12.78,2.24z M12.18,1.72l-0.12,0.11
		c-0.02,0.01-0.02,0.03-0.02,0.04c0,0.02,0.01,0.03,0.02,0.03C12.1,1.87,12.13,1.81,12.18,1.72z M13.94,3.19
		c0.03-0.2,0.04-0.34,0.04-0.42c0-0.22-0.05-0.38-0.16-0.47c-0.11-0.1-0.25-0.15-0.44-0.15c-0.07,0-0.13,0.01-0.2,0.02
		c-0.01,0.01-0.08,0.05-0.21,0.11c-0.09,0.04-0.13,0.09-0.13,0.16c0,0.03,0.01,0.06,0.02,0.1c-0.02-0.01-0.03-0.03-0.05-0.07
		c-0.02-0.04-0.04-0.06-0.05-0.07c-0.19,0.11-0.34,0.26-0.45,0.46c-0.11,0.2-0.17,0.4-0.17,0.61c0,0.24,0.06,0.42,0.19,0.54
		c0,0.08,0.03,0.15,0.1,0.2c0.07,0.06,0.13,0.11,0.2,0.16c0.15,0.01,0.31-0.01,0.47-0.06c0.23-0.07,0.42-0.21,0.58-0.44
		C13.82,3.67,13.91,3.44,13.94,3.19z M12.48,1.37h-0.04l-0.06,0.06L12.48,1.37z M12.93,4.65c-0.02,0-0.07-0.02-0.17-0.05
		c-0.07-0.02-0.12-0.02-0.17-0.02c-0.03,0-0.06,0-0.09,0.01v0.04c0.02,0.01,0.04,0.02,0.07,0.05C12.74,4.71,12.86,4.7,12.93,4.65z
		 M13.89,2.19l-0.05-0.15l-0.21-0.28c-0.18-0.11-0.31-0.16-0.39-0.16c-0.04,0-0.08,0.01-0.11,0.02l0.02,0.02l-0.04,0.03
		c-0.03,0-0.04-0.01-0.05-0.02c0-0.03,0.01-0.04,0.02-0.05h-0.11v0.05c-0.06,0.04-0.09,0.11-0.09,0.22c0,0.02,0,0.04,0,0.08
		c0,0.04,0.01,0.06,0.01,0.08c0,0.06-0.01,0.11-0.02,0.14c0.18-0.09,0.37-0.13,0.56-0.13C13.61,2.04,13.77,2.09,13.89,2.19z
		 M13.94,2L13.91,1.8c-0.06-0.11-0.12-0.23-0.17-0.35c-0.08-0.13-0.18-0.19-0.32-0.18l0.02,0.06c-0.04,0-0.08,0.01-0.13,0.02
		c-0.05,0.01-0.09,0.02-0.13,0.02V1.34c-0.05,0-0.09,0.01-0.14,0.04C13,1.41,12.95,1.44,12.91,1.47l0.29,0.01
		c0.15,0.01,0.3,0.07,0.46,0.18C13.79,1.75,13.89,1.87,13.94,2z M13.37,1.15c-0.02,0-0.06-0.02-0.12-0.04
		c-0.05-0.02-0.09-0.03-0.12-0.03c-0.03,0-0.06,0.01-0.09,0.02l0.04,0.13L13.37,1.15z M13.28,4.39c-0.05,0.02-0.13,0.06-0.22,0.1
		c0.02,0.02,0.05,0.02,0.07,0.02C13.19,4.51,13.24,4.47,13.28,4.39z M13.73,4.09l-0.31,0.37c0.08-0.02,0.14-0.07,0.2-0.16
		C13.66,4.23,13.69,4.16,13.73,4.09z M14.14,3.64c-0.06,0.12-0.12,0.25-0.18,0.37c-0.07,0.14-0.15,0.26-0.22,0.35
		C13.92,4.26,14.05,4.02,14.14,3.64z M14.18,2.04c-0.03-0.28-0.13-0.49-0.3-0.63C14.02,1.64,14.12,1.84,14.18,2.04z"/>
	<path d="M17.04,2.85c0.02,0.31-0.07,0.62-0.27,0.91c-0.18,0.28-0.42,0.49-0.72,0.64c-0.15,0.08-0.31,0.12-0.5,0.12
		c-0.33,0-0.62-0.1-0.88-0.31C14.5,4,14.41,3.78,14.41,3.55c0-0.09,0.02-0.18,0.05-0.27c0.03-0.57,0.19-0.96,0.5-1.2
		c0.32-0.31,0.69-0.51,1.13-0.6c0.33-0.02,0.56,0.08,0.7,0.3c0.07,0.12,0.12,0.29,0.16,0.52C16.98,2.59,17.02,2.77,17.04,2.85z
		 M14.66,4.03l-0.15-0.37C14.52,3.84,14.57,3.97,14.66,4.03z M16.51,2.49c-0.04-0.12-0.09-0.23-0.17-0.32
		c-0.09-0.12-0.19-0.18-0.29-0.2c0.01,0.04,0,0.08-0.02,0.12C16.02,2.13,16,2.18,15.98,2.23c-0.02-0.02-0.03-0.06-0.04-0.09
		c0-0.02,0-0.06,0-0.1c0-0.06,0.01-0.1,0.01-0.1c-0.09-0.02-0.18,0.02-0.27,0.11c-0.01-0.01-0.02-0.01-0.03-0.01
		s-0.04,0.01-0.08,0.04c-0.04,0.03-0.08,0.04-0.11,0.03c-0.17,0.13-0.41,0.39-0.71,0.79c-0.02,0.07-0.04,0.15-0.04,0.24
		c0,0.09,0.01,0.17,0.04,0.24c0.3,0.4,0.67,0.64,1.11,0.74l0.15,0.02c0.06,0.01,0.1,0,0.13-0.02c0-0.02,0.02-0.05,0.05-0.08
		c0.03-0.04,0.05-0.06,0.05-0.08c0-0.02-0.02-0.05-0.05-0.06c0-0.08,0.02-0.13,0.05-0.15c0.02,0,0.04,0,0.06,0.02
		c0.02,0.02,0.03,0.03,0.04,0.03c0.14-0.25,0.21-0.55,0.21-0.9C16.54,2.76,16.53,2.62,16.51,2.49z M15.9,4.18
		c-0.32-0.04-0.7-0.26-1.15-0.66c-0.02,0.16,0.07,0.33,0.29,0.52c0.14,0.12,0.33,0.18,0.57,0.18C15.71,4.22,15.81,4.21,15.9,4.18z
		 M15.85,1.65c-0.02-0.01-0.05-0.01-0.06,0.01c-0.02,0.02-0.04,0.03-0.05,0.03l0.01,0.02c0-0.01,0.02-0.01,0.05-0.02
		C15.83,1.69,15.85,1.68,15.85,1.65z M16.21,1.86c-0.04-0.01-0.1-0.03-0.18-0.05c0.01,0.02,0.04,0.04,0.08,0.04
		C16.17,1.85,16.2,1.86,16.21,1.86z M16.83,2.18c0.01-0.07-0.01-0.17-0.06-0.29c-0.13-0.24-0.33-0.35-0.59-0.33
		C16.44,1.66,16.66,1.87,16.83,2.18z M16.56,2.01c-0.04-0.06-0.09-0.1-0.15-0.12C16.42,1.96,16.47,2,16.56,2.01z M16.65,2.63V2.55
		c-0.01-0.08-0.02-0.17-0.03-0.25c-0.01-0.08-0.05-0.14-0.11-0.17L16.65,2.63z M16.75,2.41c0,0.06,0.01,0.11,0.01,0.17
		c0,0.18-0.02,0.39-0.07,0.62c-0.04,0.2-0.09,0.39-0.13,0.6c0.16-0.3,0.24-0.63,0.24-0.98C16.79,2.68,16.78,2.54,16.75,2.41z"/>
	<path class="st0" d="M8.43,2.95L8.42,2.92c0,0,0,0,0,0c0,0-0.01,0.01-0.01,0.01C8.38,2.97,8.35,3,8.32,3.03
		C8.31,2.99,8.33,2.98,8.34,2.96c0-0.01,0.01-0.02,0-0.03c-0.01-0.01-0.02,0-0.02,0.01C8.31,2.95,8.3,2.96,8.29,2.97
		C8.27,3.03,8.24,3.06,8.18,3.01C8.17,3.01,8.16,3,8.15,3.02c-0.01,0.01,0,0.02,0.01,0.03C8.18,3.06,8.2,3.06,8.22,3.09c0,0,0,0,0,0
		C8.19,3.1,8.16,3.12,8.13,3.13C8.12,3.14,8.1,3.15,8.09,3.15C8.05,3.16,8.02,3.16,8.01,3.1C8,3.1,8,3.11,8,3.11
		c0.01,0.06-0.03,0.1-0.09,0.09c-0.02,0-0.03-0.02-0.03-0.04C7.86,3.14,7.87,3.1,7.84,3.08l0,0c0,0,0,0.01,0,0.01
		c0.03,0.12,0.03,0.12-0.1,0.13c-0.02,0-0.05,0-0.08,0.01c0.02-0.04,0.04-0.07,0.07-0.1C7.73,3.12,7.74,3.11,7.74,3.1
		c0-0.01,0-0.01-0.01-0.02C7.72,3.06,7.71,3.09,7.7,3.1c0,0.01-0.01,0.01-0.01,0.02C7.67,3.14,7.65,3.17,7.63,3.19
		C7.61,3.22,7.59,3.22,7.56,3.2c-0.01,0-0.01-0.01-0.02-0.02C7.53,3.16,7.51,3.14,7.5,3.15C7.48,3.17,7.5,3.18,7.52,3.2
		c0.01,0.01,0.01,0.01,0.02,0.02c0,0,0,0,0,0.01c-0.01,0-0.01,0-0.02,0c-0.03,0-0.06,0-0.1-0.01c-0.01,0-0.01,0-0.01,0l0.01,0.06
		c0.02-0.02,0.04,0,0.06,0c0.02,0,0.03,0,0.04,0c0.02,0,0.03,0.01,0.03,0.04c0,0.01,0,0.02-0.01,0.03c0.01,0,0.01,0,0.02,0
		c0.01-0.01,0.01-0.01,0.02-0.02C7.6,3.3,7.62,3.29,7.65,3.32c0.01,0.01,0.02,0.02,0.03,0.03C7.7,3.36,7.71,3.38,7.74,3.38
		c0-0.03-0.03-0.04-0.05-0.07C7.68,3.31,7.68,3.3,7.67,3.29c0.03,0,0.06-0.01,0.09-0.01c0.03,0,0.06-0.01,0.08-0.01
		C7.89,3.26,7.88,3.3,7.91,3.32C7.92,3.29,7.9,3.26,7.93,3.24c0.01,0,0.01-0.01,0.02-0.01C8,3.22,8.03,3.22,8.06,3.26
		c0-0.04,0.01-0.06,0.03-0.07c0.02-0.02,0.06-0.03,0.08-0.04c0,0.04-0.03,0.05-0.03,0.09c0.04-0.01,0.06-0.05,0.07-0.08
		c0.02-0.04,0.04-0.07,0.09-0.04c0.01,0.01,0.02,0.01,0.03-0.01c-0.05-0.04-0.03-0.06,0-0.09c0,0,0.01-0.01,0.01-0.01
		c0.02-0.01,0.04-0.03,0.06-0.05c0,0,0.01-0.01,0.01-0.01L8.43,2.95z"/>
	<path class="st1" d="M8.71,3.2c0,0.54-0.28,1.01-0.7,1.29c0,0,0,0,0,0C7.75,4.65,7.47,4.75,7.17,4.77c0,0,0,0,0,0
		c-0.04,0-0.08,0-0.12,0c-0.91,0-1.64-0.71-1.64-1.59c0-0.67,0.51-1.23,1.09-1.47c0,0,0.01,0,0.01,0C6.69,1.64,6.88,1.6,7.06,1.6
		c0.14,0,0.28,0.02,0.42,0.05C8.18,1.83,8.71,2.46,8.71,3.2z"/>
	<path class="st1" d="M8.67,3.5C8.67,3.5,8.67,3.5,8.67,3.5c-0.06,0.29-0.2,0.55-0.39,0.76c0,0,0,0,0,0C8,4.56,7.6,4.76,7.16,4.78
		c-0.01,0-0.02,0-0.03,0h0c-0.01,0-0.02,0-0.04,0c-0.01,0-0.03,0-0.04,0C6.25,4.76,5.6,4.16,5.5,3.4C5.49,3.33,5.48,3.26,5.48,3.2
		V3.19c0-0.55,0.28-1.03,0.7-1.31c0,0,0,0,0.01,0C6.45,1.7,6.76,1.6,7.09,1.6C7.5,1.6,7.88,1.75,8.16,2c0.2,0.18,0.36,0.4,0.45,0.66
		c0,0.02,0,0.04,0,0.06c0.01,0.17,0.02,0.34,0.04,0.51c0.01,0.01,0.01,0.02,0,0.02c0,0.01,0,0.02,0,0.02c0.01,0.01,0.01,0.02,0,0.03
		c0,0.03,0,0.05,0.01,0.08c0,0,0,0,0,0.01c0,0.01,0,0.02,0,0.03c0.01,0.01,0.01,0.01,0,0.02C8.67,3.44,8.67,3.47,8.67,3.5
		C8.67,3.5,8.67,3.5,8.67,3.5z"/>
	<path class="st2" d="M6.34,4.74C6.34,4.74,6.34,4.74,6.34,4.74C6.34,4.75,6.34,4.75,6.34,4.74C6.34,4.75,6.34,4.74,6.34,4.74z
		 M5.51,3.86C5.51,3.86,5.51,3.86,5.51,3.86C5.66,4.22,5.93,4.52,6.26,4.7c0,0,0,0,0.01,0C5.93,4.5,5.67,4.22,5.51,3.86z"/>
	<path class="st1" d="M8,4.49C7.76,4.65,7.48,4.75,7.17,4.77C7.47,4.75,7.75,4.65,8,4.49z"/>
	<path class="st3" d="M8.24,4.3C8.21,4.34,8.18,4.36,8.14,4.39C8.13,4.39,8.13,4.4,8.12,4.41c-0.24,0.19-0.51,0.3-0.81,0.35
		c0,0,0,0,0,0.01v0C7.25,4.77,7.19,4.78,7.13,4.78c0,0-0.01,0-0.01,0c-0.01,0-0.01,0-0.02,0h0c-0.01,0-0.02,0-0.04,0
		c-0.01,0-0.03,0-0.04,0c-0.42-0.01-0.8-0.17-1.08-0.44C5.99,4.36,6.03,4.38,6.08,4.4c0.23,0.08,0.46,0.14,0.7,0.17
		c0.09,0.01,0.18,0.01,0.27,0.02l0.14-0.01c0,0,0,0,0,0c0.32-0.01,0.63-0.09,0.93-0.23C8.16,4.33,8.19,4.31,8.24,4.3
		C8.24,4.3,8.24,4.3,8.24,4.3z"/>
	<path class="st4" d="M7.17,3.52C7.17,3.52,7.17,3.52,7.17,3.52C7.17,3.52,7.17,3.52,7.17,3.52z"/>
	<polygon class="st5" points="7.1,3.54 7.1,3.54 7.1,3.54 	"/>
	<path class="st5" d="M7.82,2.81c0,0.01,0,0.02,0.01,0.03C7.91,3.07,7.84,3.07,8.1,2.95C8.14,2.94,8.18,2.92,8.22,2.9
		C8.3,2.93,8.33,2.98,8.29,3.06C8.25,3.08,8.21,3.1,8.17,3.12c0,0-0.01,0-0.01,0c-0.25,0.11-0.23,0.03-0.12,0.3
		c0,0.04,0.01,0.07,0.04,0.1C8.06,3.6,8.02,3.64,7.93,3.61C7.91,3.57,7.89,3.53,7.87,3.49c-0.09-0.27-0.03-0.24-0.3-0.13
		C7.54,3.37,7.51,3.39,7.48,3.4C7.39,3.38,7.37,3.32,7.4,3.24C7.44,3.23,7.47,3.21,7.51,3.2c0.28-0.11,0.25-0.04,0.14-0.33
		C7.63,2.84,7.62,2.8,7.61,2.77c0.04-0.09,0.09-0.1,0.17-0.05C7.79,2.75,7.8,2.78,7.82,2.81z"/>
	<path class="st0" d="M8.04,2.4C8.04,2.37,8.04,2.35,8.04,2.33c0.02,0,0.02,0.02,0.02,0.03C8.07,2.38,8.08,2.38,8.1,2.36
		c0.01-0.01,0.02-0.02,0.03-0.03c0,0.03-0.02,0.04-0.03,0.06C8.08,2.41,8.09,2.41,8.11,2.42c0.02,0.01,0.04,0.01,0.06,0.02
		c0.02,0.01,0.02,0,0.02-0.01c0-0.02,0.01-0.04,0.01-0.06c0-0.01,0-0.02,0.01-0.01c0.01,0,0,0.01,0,0.02c0,0.02-0.01,0.04-0.01,0.06
		c-0.01,0.02,0,0.02,0.01,0.03c0.01,0,0.01,0,0.02,0.01c0.02,0.01,0.03,0,0.03-0.02c0-0.02,0-0.04,0.01-0.06
		c0.02,0.02,0.01,0.05,0,0.06c-0.01,0.03,0,0.04,0.03,0.04c0.01,0,0.02,0,0.02,0.01c0,0.01-0.02,0-0.02,0
		C8.28,2.5,8.28,2.5,8.27,2.53c0,0.01-0.01,0.03-0.02,0.05c-0.01-0.02,0-0.04,0.01-0.06c0.01-0.02,0-0.03-0.02-0.04
		c-0.01,0-0.02,0-0.02-0.01c-0.01-0.01-0.02,0-0.02,0.01C8.19,2.51,8.19,2.53,8.17,2.55c0-0.03,0.01-0.05,0.01-0.07
		c0-0.01,0-0.02-0.01-0.02C8.15,2.45,8.13,2.44,8.1,2.44c0.01,0.02,0.02,0.04,0.03,0.05c0,0.01,0.01,0.01,0,0.02
		c-0.01,0-0.01,0-0.01-0.01C8.1,2.48,8.09,2.46,8.08,2.44C8.07,2.42,8.06,2.42,8.05,2.43C8.03,2.45,8.01,2.48,7.97,2.49
		C7.98,2.46,8,2.45,8.02,2.43c0.01-0.01,0.02-0.02,0-0.03C7.99,2.4,7.97,2.39,7.95,2.38c-0.02-0.01-0.02,0-0.03,0.01
		C7.91,2.4,7.91,2.42,7.9,2.43c0,0-0.01,0.01-0.01,0.01c-0.01,0,0-0.01,0-0.01c0,0,0,0,0-0.01c0-0.02,0.02-0.04,0.01-0.05
		C7.89,2.35,7.86,2.34,7.83,2.33c-0.01,0-0.01,0-0.02,0.01C7.81,2.36,7.8,2.38,7.79,2.41c-0.01-0.03,0-0.04,0-0.06
		c0-0.02,0-0.03-0.02-0.03C7.76,2.3,7.74,2.29,7.72,2.28c-0.02-0.01-0.03,0-0.03,0.02c0,0.02-0.01,0.03-0.02,0.04
		c-0.01-0.02,0-0.03,0-0.05c0.01-0.02,0-0.03-0.02-0.04C7.62,2.25,7.6,2.23,7.57,2.22c-0.01,0-0.02-0.01-0.02-0.02
		c0-0.01,0.02,0,0.02,0C7.6,2.21,7.63,2.22,7.65,2.23c0.02,0.01,0.03,0.01,0.03-0.02c0-0.01,0-0.02,0.01-0.02
		c0.01,0,0.01,0.01,0.01,0.02C7.69,2.25,7.71,2.26,7.73,2.26c0.01,0,0.02,0.01,0.02,0.01C7.77,2.28,7.79,2.29,7.8,2.29
		c0.02,0,0.01-0.03,0.02-0.04c0,0,0-0.01,0.01-0.01c0.01,0,0,0.01,0,0.01c0,0.05,0,0.05,0.04,0.07C7.92,2.34,7.92,2.34,7.93,2.3
		c0-0.01,0.01-0.02,0.02-0.02c0.01,0,0,0.01,0,0.02C7.94,2.35,7.94,2.35,7.98,2.37C8,2.38,8.01,2.38,8.04,2.4z"/>
	<path class="st0" d="M6.5,1.72c0,0-0.01,0.01-0.01,0.01c0,0.01,0,0.01,0,0.02c0.01,0.01,0.01,0,0.02-0.01
		C6.52,1.73,6.53,1.72,6.54,1.7C6.53,1.71,6.52,1.71,6.5,1.72z"/>
	<g>
		<path class="st0" d="M7.03,2.92C7.01,2.8,6.95,2.71,6.88,2.61C6.87,2.6,6.85,2.59,6.84,2.57C6.62,2.36,6.32,2.35,6.09,2.45
			C5.75,2.61,5.62,3,5.78,3.36C5.79,3.37,5.79,3.38,5.8,3.39c0.13,0.22,0.33,0.33,0.59,0.33C6.8,3.72,7.12,3.33,7.03,2.92z
			 M6.95,3.13C6.91,3.54,6.48,3.78,6.11,3.62C5.98,3.56,5.88,3.47,5.82,3.34C5.69,3.14,5.73,2.85,5.9,2.66
			c0.17-0.19,0.42-0.25,0.65-0.17c0.01,0,0.01,0.01,0.02,0.01C6.82,2.58,6.98,2.84,6.95,3.13z"/>
		<path class="st6" d="M6.56,2.5c-0.06,0-0.12-0.02-0.18-0.02C6.13,2.49,5.93,2.6,5.82,2.83C5.76,2.94,5.76,3.07,5.78,3.19
			c0.01,0.05,0.02,0.1,0.03,0.16c0.06,0.13,0.17,0.22,0.29,0.27c0.37,0.16,0.8-0.08,0.84-0.49C6.98,2.84,6.82,2.58,6.56,2.5z
			 M5.92,3.35C5.9,3.36,5.88,3.33,5.87,3.31c-0.06-0.13-0.07-0.26-0.03-0.4c0.01-0.05,0.02-0.1,0.06-0.13
			C5.9,2.83,5.88,2.88,5.87,2.94C5.85,3.05,5.86,3.14,5.9,3.24c0.01,0.01,0.01,0.03,0.02,0.04C5.92,3.31,5.95,3.33,5.92,3.35z
			 M6.52,3.57C6.48,3.6,6.43,3.6,6.38,3.6c-0.08,0-0.16-0.02-0.24-0.05C6.08,3.54,6.03,3.5,5.99,3.45C5.99,3.44,5.97,3.43,5.99,3.42
			c0.01-0.01,0.02,0,0.03,0.01c0.12,0.13,0.28,0.14,0.44,0.13c0.02,0,0.03-0.01,0.04-0.02c0.01,0,0.03-0.01,0.03,0
			C6.54,3.56,6.53,3.57,6.52,3.57z M6.55,3.29C6.49,3.33,6.47,3.33,6.41,3.28C6.33,3.2,6.33,3.2,6.25,3.31
			C6.24,3.32,6.23,3.36,6.2,3.35C6.16,3.34,6.1,3.28,6.1,3.25c0.01-0.04,0.03-0.09,0.06-0.12c0.03-0.03,0.02-0.06,0-0.09
			C6.13,3,6.11,2.96,6.09,2.91c0-0.01-0.01-0.02,0-0.02C6.11,2.84,6.16,2.84,6.2,2.82c0.02-0.01,0.04,0,0.06,0.02
			c0.02,0.03,0.03,0.08,0.06,0.08c0.02,0,0.05-0.04,0.07-0.07c0.09-0.09,0.09-0.09,0.17,0.01C6.58,2.89,6.56,2.9,6.55,2.91
			C6.52,2.95,6.49,2.99,6.46,3.02C6.43,3.05,6.44,3.07,6.47,3.09c0.03,0.02,0.05,0.04,0.08,0.06C6.61,3.2,6.61,3.24,6.55,3.29z
			 M6.61,2.67c-0.01,0.01-0.02,0-0.03-0.01C6.47,2.6,6.35,2.58,6.23,2.61C6.17,2.62,6.12,2.66,6.07,2.69
			C6.06,2.7,6.05,2.72,6.03,2.71C6.02,2.69,6.04,2.68,6.05,2.67c0.08-0.08,0.17-0.11,0.29-0.11c0.09,0,0.17,0.03,0.25,0.09
			C6.6,2.65,6.62,2.65,6.61,2.67z M6.73,3.43C6.72,3.44,6.71,3.45,6.7,3.44c-0.01-0.01-0.01-0.02,0-0.03
			c0.02-0.03,0.04-0.06,0.05-0.09C6.82,3.14,6.8,2.96,6.72,2.79c0-0.01-0.01-0.02-0.01-0.03c0-0.01-0.03-0.03,0-0.04
			c0.02-0.01,0.03,0.01,0.04,0.02c0.07,0.1,0.1,0.22,0.1,0.34C6.85,3.21,6.79,3.32,6.73,3.43z"/>
		<path class="st7" d="M6.56,2.5c-0.06,0-0.12-0.02-0.18-0.02C6.13,2.49,5.93,2.6,5.82,2.83C5.76,2.94,5.76,3.07,5.78,3.19
			c0.01,0.05,0.02,0.1,0.03,0.16C5.69,3.14,5.73,2.85,5.9,2.66c0.17-0.19,0.42-0.25,0.65-0.17C6.55,2.5,6.56,2.5,6.56,2.5z"/>
		<path class="st0" d="M6.1,3.25c0.01-0.04,0.03-0.09,0.06-0.12c0.03-0.03,0.02-0.06,0-0.09C6.13,3,6.11,2.96,6.09,2.91
			c0-0.01-0.01-0.02,0-0.02C6.11,2.84,6.16,2.84,6.2,2.82c0.02-0.01,0.04,0,0.06,0.02c0.02,0.03,0.03,0.08,0.06,0.08
			c0.02,0,0.05-0.04,0.07-0.07c0.09-0.09,0.09-0.09,0.17,0.01C6.58,2.89,6.56,2.9,6.55,2.91C6.52,2.95,6.49,2.99,6.46,3.02
			C6.43,3.05,6.44,3.07,6.47,3.09c0.03,0.02,0.05,0.04,0.08,0.06C6.61,3.2,6.61,3.24,6.55,3.29C6.49,3.34,6.47,3.33,6.41,3.28
			C6.33,3.2,6.33,3.2,6.25,3.31C6.24,3.32,6.23,3.36,6.2,3.35C6.16,3.34,6.1,3.28,6.1,3.25z"/>
		<path class="st0" d="M6.84,3.09c0,0.13-0.05,0.23-0.11,0.34C6.72,3.44,6.71,3.45,6.7,3.44c-0.01-0.01-0.01-0.02,0-0.03
			c0.02-0.03,0.04-0.06,0.05-0.09C6.82,3.14,6.8,2.96,6.72,2.79c0-0.01-0.01-0.02-0.01-0.03c0-0.01-0.03-0.03,0-0.04
			c0.02-0.01,0.03,0.01,0.04,0.02C6.81,2.85,6.84,2.97,6.84,3.09z"/>
		<path class="st0" d="M6.34,2.55c0.09,0.01,0.17,0.03,0.25,0.09C6.6,2.65,6.62,2.65,6.61,2.67c-0.01,0.01-0.02,0-0.03-0.01
			C6.47,2.6,6.35,2.58,6.23,2.61C6.17,2.62,6.12,2.66,6.07,2.69C6.06,2.7,6.05,2.72,6.03,2.71C6.02,2.69,6.04,2.68,6.05,2.67
			C6.12,2.58,6.22,2.56,6.34,2.55z"/>
		<path class="st0" d="M6.38,3.6c-0.08,0-0.16-0.02-0.24-0.05C6.08,3.54,6.03,3.5,5.99,3.45C5.99,3.44,5.97,3.43,5.99,3.42
			c0.01-0.01,0.02,0,0.03,0.01c0.12,0.13,0.28,0.14,0.44,0.13c0.02,0,0.03-0.01,0.04-0.02c0.01,0,0.03-0.01,0.03,0
			c0.01,0.02-0.01,0.02-0.02,0.03C6.48,3.6,6.43,3.6,6.38,3.6z"/>
		<path class="st0" d="M5.91,2.78C5.9,2.83,5.88,2.88,5.87,2.94C5.85,3.05,5.86,3.14,5.9,3.24c0.01,0.01,0.01,0.03,0.02,0.04
			c0.01,0.02,0.03,0.05,0,0.06C5.9,3.36,5.88,3.33,5.87,3.31c-0.06-0.13-0.07-0.26-0.03-0.4C5.86,2.86,5.87,2.81,5.91,2.78z"/>
	</g>
	<g>
		<path class="st0" d="M8.32,4C8.32,3.99,8.31,4,8.3,4.01C8.29,4.02,8.27,4.03,8.26,4.04C8.24,4.05,8.22,4.05,8.21,4.03
			C8.2,4.01,8.19,3.98,8.17,3.97c0,0.03,0.01,0.05,0.02,0.07C8.2,4.06,8.2,4.07,8.17,4.08C8.12,4.1,8.07,4.13,8.02,4.15
			C8,4.15,7.99,4.15,7.98,4.13C7.98,4.11,7.96,4.08,7.95,4.06c0-0.01-0.01-0.02-0.02-0.01c-0.01,0,0,0.01,0,0.02
			c0.01,0.02,0.01,0.04,0.02,0.07c0.01,0.02,0,0.04-0.02,0.05c-0.05,0.01-0.1,0.03-0.15,0.04c-0.02,0-0.02,0-0.03-0.02
			c0-0.01,0-0.01,0-0.02c0,0,0-0.01,0-0.01C7.73,4.15,7.73,4.12,7.72,4.1c0-0.01-0.01-0.02-0.02-0.02C7.7,4.12,7.71,4.15,7.72,4.17
			c0,0.01,0,0.01,0,0.02c0,0,0,0,0,0c0.01,0.02,0,0.03-0.02,0.03c0,0,0,0,0,0c-0.01,0-0.02,0-0.02,0c-0.02,0-0.05,0-0.07,0.01
			c-0.02,0-0.04,0-0.05,0c-0.01,0-0.02,0-0.02-0.01c0,0,0-0.01,0-0.01c0-0.06-0.02-0.11-0.04-0.17c0,0,0-0.01-0.01-0.01
			c0,0.03,0.01,0.07,0.01,0.11c0,0.01,0,0.02,0,0.02v0c0,0.01,0,0.03,0,0.04c0,0.01,0,0.02-0.02,0.02c-0.03,0-0.05,0-0.08-0.01
			c-0.02,0-0.03,0-0.05-0.01c0,0-0.01-0.01,0-0.02c0-0.04,0-0.08-0.01-0.11c-0.01,0.04,0,0.07-0.01,0.11c0,0.01-0.01,0.02-0.01,0.02
			c-0.03,0-0.06-0.01-0.09-0.02c0,0,0,0,0,0c0,0,0,0-0.01,0h0l0,0c0,0-0.01,0-0.01-0.01c-0.01,0,0-0.01,0.01-0.02
			c0.02-0.02,0.04-0.04,0.06-0.06C7.28,4.11,7.3,4.1,7.29,4.09C7.28,4.08,7.27,4.1,7.26,4.1C7.24,4.11,7.23,4.13,7.22,4.14
			C7.2,4.15,7.19,4.16,7.17,4.17l0,0L7.16,4.18L7.15,4.17c0,0,0,0,0,0C7.12,4.14,7.09,4.1,7.05,4.08C7.06,4.1,7.07,4.11,7.08,4.13
			c0.01,0.02,0.03,0.04,0.05,0.06c0,0,0,0,0,0L7.14,4.2c-0.01,0-0.02,0.01-0.03,0.01C7.02,4.24,6.93,4.26,6.85,4.28
			c-0.01,0-0.02,0-0.02-0.02c0-0.02,0-0.04,0-0.05c0-0.01,0-0.01,0-0.01c0-0.04,0-0.07,0-0.11c-0.01,0-0.01,0-0.01,0.01
			C6.8,4.15,6.79,4.2,6.79,4.26v0c0,0.02-0.01,0.02-0.02,0.02c0,0-0.01,0-0.01,0c-0.04,0-0.07,0-0.11,0c-0.01,0-0.02,0-0.02,0
			c0,0-0.01,0-0.01,0c-0.02,0-0.03-0.01-0.03-0.03c0,0,0-0.01,0-0.01c0-0.01,0-0.01,0-0.02c0-0.03,0.01-0.05,0.01-0.08
			c-0.02,0-0.02,0.01-0.02,0.02C6.59,4.19,6.58,4.21,6.58,4.23c0,0,0,0.01,0,0.01c0,0.01,0,0.02,0,0.03c0,0.02-0.01,0.02-0.03,0.02
			c-0.05,0-0.1-0.01-0.16-0.02c-0.03,0-0.03-0.02-0.03-0.04C6.37,4.2,6.37,4.18,6.38,4.16c0-0.01,0.01-0.02-0.01-0.02
			c-0.01,0-0.01,0.01-0.01,0.01C6.35,4.17,6.34,4.2,6.33,4.23c0,0.02-0.02,0.02-0.03,0.02C6.24,4.23,6.19,4.21,6.14,4.2
			C6.11,4.19,6.11,4.17,6.11,4.15c0.01-0.02,0.02-0.04,0.01-0.07C6.11,4.1,6.1,4.12,6.09,4.15C6.08,4.17,6.07,4.17,6.05,4.16
			C6.03,4.15,6.02,4.14,6,4.13c-0.01,0-0.02-0.01-0.02,0c-0.01,0.01,0,0.02,0.01,0.02c0.03,0.02,0.06,0.03,0.08,0.05
			c0.01,0,0.01,0,0,0.01v0.01c0.01,0.01,0.01,0.02,0,0.03c0,0.02,0.01,0.04,0.01,0.06C6.09,4.32,6.1,4.33,6.1,4.33
			c0.01-0.01,0-0.02,0-0.03c0-0.02,0-0.04,0-0.06c0-0.02,0-0.03,0.02-0.02C6.18,4.25,6.24,4.27,6.3,4.29
			C6.32,4.29,6.33,4.3,6.33,4.33c0,0.02,0,0.04,0.01,0.06c0.01,0.01,0.01,0.03,0.02,0.02c0.02-0.01,0-0.02,0-0.03
			C6.36,4.36,6.36,4.35,6.36,4.33c0,0,0,0,0-0.01c0-0.01-0.01-0.03,0.02-0.02C6.44,4.32,6.5,4.32,6.56,4.33
			c0.01,0,0.02,0.01,0.02,0.02c0,0.03,0.01,0.05,0.02,0.08c0,0.01,0.01,0.02,0.02,0.01c0.01,0,0-0.01,0-0.02
			c0-0.02-0.01-0.04-0.01-0.06C6.59,4.34,6.59,4.33,6.62,4.33c0.01,0,0.02,0,0.03,0c0.01,0,0.02,0,0.02,0
			c0.04,0,0.08-0.01,0.12-0.01c0.01,0,0.02,0,0.03,0.02c0,0.02,0.01,0.04,0.01,0.05C6.84,4.4,6.84,4.42,6.86,4.41
			c0.01-0.01,0-0.02,0-0.03c0,0,0-0.01,0-0.01c0,0,0,0,0,0c0-0.01-0.01-0.02-0.01-0.03c-0.01-0.01,0-0.02,0.01-0.02c0,0,0,0,0.01,0
			c0.03-0.01,0.07-0.01,0.1-0.02c0.03-0.01,0.06-0.02,0.09-0.03c0.01,0,0.01-0.01,0.02,0c0,0,0,0,0,0C7.06,4.26,7.04,4.27,7.03,4.28
			c0,0,0,0,0,0c-0.01,0-0.01,0.01-0.02,0.01C7,4.31,7,4.31,7,4.32c0.01,0,0.01,0,0.02-0.01c0.01,0,0.01-0.01,0.02-0.01
			C7.05,4.3,7.07,4.28,7.08,4.27C7.1,4.26,7.12,4.25,7.14,4.23l0.02,0l0,0c0,0.02,0.01,0.02,0.02,0.03
			c0.02,0.02,0.05,0.05,0.07,0.08c0,0.01-0.01,0.02,0.01,0.02c0.01,0,0.03,0,0.03-0.02c0-0.01,0.01-0.02,0.02-0.03
			c0,0,0-0.01,0.01-0.01c0,0,0-0.01,0.01-0.01c0-0.01,0.01-0.02,0.03-0.02c0.03,0,0.05,0,0.08,0c0.01,0,0.03,0,0.04,0
			c0,0,0.01,0,0.01,0c0.01,0,0.01,0.01,0.01,0.02c0,0.01,0,0.02-0.01,0.03c0,0,0,0.01,0,0.02c0,0,0,0,0,0c0,0.01-0.01,0.02,0,0.03
			C7.5,4.38,7.5,4.35,7.51,4.34c0-0.02,0-0.04,0.01-0.06c0-0.01,0.01-0.02,0.02-0.02c0.04,0,0.08,0,0.12,0c0.01,0,0.02,0,0.02,0
			c0.01,0,0.02,0,0.03,0c0.02,0,0.03,0.01,0.02,0.03c0,0.02-0.01,0.04-0.01,0.06c0,0.01-0.01,0.02,0,0.02
			c0.01,0,0.01-0.01,0.02-0.01c0-0.03,0.01-0.05,0.01-0.08c0-0.01,0.01-0.02,0.02-0.02c0.06-0.01,0.12-0.02,0.17-0.04
			c0.02-0.01,0.02,0.01,0.02,0.02c0,0,0,0,0,0.01c0.01,0.01,0.01,0.03,0,0.04c0,0.01-0.01,0.03,0.01,0.03
			c0.01,0,0.01-0.02,0.02-0.03C8,4.27,8,4.25,7.99,4.23C7.99,4.21,8,4.2,8.02,4.19c0.06-0.02,0.11-0.04,0.16-0.07
			c0.02-0.01,0.02,0,0.03,0.01c0,0.02,0,0.04,0,0.06c0,0.01-0.01,0.02,0.01,0.03c0-0.01,0.01-0.01,0.01-0.02
			c0-0.02,0-0.04,0.01-0.06c-0.01-0.01-0.01-0.02,0-0.03c0,0,0-0.01,0-0.01c0,0,0-0.01,0-0.01c0.03-0.02,0.05-0.04,0.08-0.06
			C8.32,4.02,8.33,4.01,8.32,4z M7.3,4.27C7.3,4.27,7.3,4.27,7.3,4.27c0,0.01-0.01,0.01-0.01,0.02C7.28,4.31,7.27,4.31,7.25,4.28
			C7.24,4.27,7.23,4.26,7.23,4.25c0-0.01-0.01-0.01-0.01-0.02c0.03,0.01,0.05,0.01,0.07,0.02c0,0,0.01,0,0.01,0
			C7.3,4.26,7.3,4.26,7.3,4.27z"/>
	</g>
	<path class="st2" d="M8.24,4.3C8.21,4.33,8.18,4.36,8.14,4.39C8.18,4.36,8.21,4.34,8.24,4.3C8.24,4.3,8.24,4.3,8.24,4.3z"/>
	<path class="st2" d="M8.57,2.35c-0.3-0.51-0.86-0.86-1.5-0.86c-0.01,0-0.02,0-0.04,0H7.02C6.09,1.52,5.34,2.27,5.34,3.21
		c0,0.24,0.05,0.47,0.14,0.68c0,0,0,0,0,0C5.65,4.23,5.9,4.51,6.24,4.71c0,0,0,0-0.01,0c0,0,0,0,0.01,0
		c0.02,0.01,0.05,0.02,0.07,0.04c0,0,0,0,0,0c0,0,0,0,0,0c0,0,0,0,0.01,0h0c0.01,0,0.01,0.01,0.02,0.01
		c0.02,0.01,0.04,0.02,0.06,0.03c0.01,0,0.02,0.01,0.02,0.01c0,0,0.01,0,0.01,0c0.1,0.04,0.22,0.07,0.33,0.09c0,0,0,0,0.01,0
		c0.1,0.02,0.2,0.03,0.3,0.03c0.38,0,0.73-0.13,1.02-0.33c0,0,0,0,0,0C8.13,4.57,8.17,4.55,8.2,4.52c0.25-0.21,0.43-0.49,0.53-0.81
		C8.77,3.55,8.8,3.38,8.8,3.21C8.8,2.89,8.71,2.6,8.57,2.35z M8.67,3.45c0,0.03-0.01,0.06-0.02,0.08c0,0,0,0,0,0
		C8.6,3.77,8.5,3.99,8.35,4.18C8.32,4.21,8.29,4.24,8.27,4.27c0,0,0,0,0,0C8.25,4.28,8.25,4.29,8.24,4.3c0,0,0,0,0,0
		C8.21,4.34,8.18,4.36,8.14,4.39C7.93,4.57,7.67,4.7,7.38,4.75c-0.01,0-0.02,0-0.02,0c-0.02,0-0.03,0.01-0.05,0.01v0
		C7.25,4.77,7.19,4.78,7.13,4.78c0,0-0.01,0-0.01,0c-0.01,0-0.01,0-0.02,0h0c-0.01,0-0.02,0-0.04,0c-0.01,0-0.03,0-0.04,0
		c-0.02,0-0.05,0-0.07,0c0,0-0.01,0-0.01,0c-0.39-0.03-0.74-0.19-1-0.43C5.69,4.11,5.52,3.79,5.47,3.43
		C5.46,3.37,5.46,3.3,5.46,3.24V3.23c0-0.23,0.05-0.45,0.15-0.65c0,0,0,0,0,0c0.12-0.25,0.3-0.46,0.53-0.62
		c0.01-0.01,0.01-0.01,0.02-0.01c0,0,0,0,0.01,0c0.01,0,0.01-0.01,0.02-0.01c0.14-0.09,0.3-0.16,0.48-0.2
		c0.02,0,0.03-0.01,0.05-0.01h0c0.11-0.02,0.23-0.04,0.35-0.04h0.01c0.01,0,0.03,0,0.04,0c0.39,0.01,0.75,0.15,1.03,0.39
		C8.31,2.2,8.45,2.37,8.56,2.57c0.02,0.04,0.03,0.09,0.03,0.14C8.6,2.74,8.61,2.77,8.62,2.8c0.04,0.14,0.06,0.28,0.06,0.43
		C8.68,3.3,8.68,3.38,8.67,3.45z"/>
	<g>
		<path class="st0" d="M6.32,2.12c-0.03,0-0.03-0.02-0.02-0.04C6.32,2.06,6.33,2.03,6.34,2c0.01-0.03,0-0.05-0.03-0.06
			c-0.03-0.01-0.07-0.02-0.1-0.03C6.2,1.92,6.18,1.93,6.17,1.94C6.2,1.95,6.24,1.96,6.28,1.98C6.3,1.98,6.3,1.99,6.3,2.01
			c0,0.01-0.01,0.01-0.01,0.02C6.25,2.11,6.27,2.11,6.18,2.1c-0.02,0-0.02,0-0.05,0.01c0.02,0.03,0.05,0.02,0.08,0.03
			c0.01,0,0.04,0,0.02,0.02c-0.01,0.02,0,0.05-0.03,0.04c-0.02,0-0.04-0.01-0.07-0.01c-0.01,0-0.02,0-0.03,0.01
			c0,0.01,0.01,0.01,0.02,0.01C6.21,2.23,6.21,2.23,6.18,2.3C6.18,2.31,6.17,2.33,6.16,2.34C6.14,2.4,6.14,2.4,6.08,2.37
			C6.06,2.36,6.04,2.35,6.06,2.32c0,0,0-0.01,0-0.01c0-0.02,0.01-0.04-0.01-0.05c-0.02,0-0.02,0.02-0.02,0.04
			C6.02,2.34,6.01,2.36,5.97,2.33C5.95,2.32,5.92,2.33,5.91,2.3C5.9,2.28,5.92,2.25,5.92,2.23c0-0.01,0-0.02,0-0.03
			C5.9,2.22,5.9,2.24,5.89,2.26C5.88,2.29,5.87,2.3,5.84,2.29C5.82,2.28,5.8,2.27,5.78,2.27C5.77,2.28,5.76,2.29,5.75,2.31
			C5.77,2.32,5.8,2.32,5.82,2.33c0.04,0.01,0.04,0.03,0.03,0.06C5.84,2.41,5.82,2.44,5.84,2.45c0.02,0.01,0.02-0.03,0.03-0.05
			c0.01-0.03,0.02-0.04,0.06-0.03C6,2.39,6.01,2.39,5.99,2.47c0,0.01-0.01,0.03,0,0.03C6.01,2.5,6.01,2.48,6.01,2.47
			c0.03-0.08,0.03-0.08,0.1-0.05c0,0,0.01,0,0.01,0c0.03,0.01,0.04,0,0.05-0.02c0.02-0.05,0.04-0.1,0.06-0.15
			c0.01-0.02,0.02-0.02,0.04-0.02c0.02,0,0.05,0.02,0.07,0C6.32,2.22,6.3,2.22,6.28,2.21c-0.01,0-0.02-0.01-0.02-0.02
			c0.01-0.04,0.03-0.06,0.07-0.04c0.02,0.01,0.05,0.02,0.07,0C6.38,2.13,6.35,2.13,6.32,2.12z"/>
		<path class="st8" d="M6.12,1.97c0.02-0.01,0.03-0.02,0.05-0.03C6.2,1.95,6.24,1.96,6.28,1.98C6.3,1.98,6.3,1.99,6.3,2.01
			c0,0.01-0.01,0.01-0.01,0.02C6.25,2.11,6.27,2.11,6.18,2.1c-0.02,0-0.02,0-0.05,0.01c0.02,0.03,0.05,0.02,0.08,0.03
			c0.01,0,0.04,0,0.02,0.02c-0.01,0.02,0,0.05-0.03,0.04c-0.02,0-0.04-0.01-0.07-0.01c-0.01,0-0.02,0-0.03,0.01
			c0,0.01,0.01,0.01,0.02,0.01C6.21,2.23,6.21,2.23,6.18,2.3C6.18,2.31,6.17,2.33,6.16,2.34C6.14,2.4,6.14,2.4,6.08,2.37
			C6.06,2.36,6.04,2.35,6.06,2.32c0,0,0-0.01,0-0.01c0-0.02,0.01-0.04-0.01-0.05c-0.02,0-0.02,0.02-0.02,0.04
			C6.02,2.34,6.01,2.36,5.97,2.33C5.95,2.32,5.92,2.33,5.91,2.3C5.9,2.28,5.92,2.25,5.92,2.23c0-0.01,0-0.02,0-0.03
			C5.9,2.22,5.9,2.24,5.89,2.26C5.88,2.29,5.87,2.3,5.84,2.29C5.82,2.28,5.8,2.27,5.78,2.27C5.87,2.17,5.97,2.08,6.09,2L6.12,1.97z"
			/>
	</g>
	<g>
		<path class="st2" d="M5.58,2.55L5.57,2.5l0-0.03L5.6,2.42l0.02-0.04l0.01-0.02l0-0.01c0.01-0.02,0.01-0.05,0.04-0.07l0,0
			C5.68,2.23,5.7,2.19,5.74,2.15c0,0,0,0,0.01,0c0.03-0.04,0.06-0.06,0.1-0.08c0.03-0.02,0.07-0.03,0.1-0.05
			c0.04-0.01,0.07-0.03,0.11-0.03C6.2,2.02,6.35,2.06,6.49,2.1c0,0,0.01,0,0.01,0.01l0,0l0.01,0l0.03,0.01l0.05,0.01l0.05,0.01
			L6.7,2.16l0.04,0.01l0,0l0,0c0.01,0,0.01,0,0.02,0.01C6.9,2.23,7.03,2.26,7.16,2.3c0.01,0,0.03,0,0.04,0.01c0.01,0,0.01,0,0.02,0
			c0.09,0,0.18,0.01,0.27,0.01c0.14,0,0.28-0.01,0.41-0.02c0.03,0,0.05-0.01,0.08-0.01l0.3-0.04l0.06,0.01l0.03,0.02l0.03,0
			l0.03,0.03l0.05,0l0.02,0.01l0,0C8.51,2.31,8.54,2.3,8.56,2.28l0,0l0.01-0.01C8.59,2.26,8.6,2.25,8.62,2.24
			c0.01,0,0.01-0.01,0.02-0.01l0,0l0.03-0.01l0.02-0.04L8.7,2.15c0.01-0.07,0-0.14-0.01-0.2C8.69,1.89,8.68,1.83,8.69,1.77
			c0.02-0.2-0.04-0.39-0.17-0.55c-0.04-0.05-0.09-0.1-0.14-0.16c-0.01,0-0.02-0.01-0.02-0.02C8.35,1.04,8.34,1.04,8.33,1.03
			c-0.01,0-0.02-0.01-0.02-0.02C8.31,1.01,8.3,1,8.3,1C8.29,0.99,8.27,0.98,8.27,0.97C8.25,0.96,8.23,0.94,8.21,0.92
			c-0.01,0-0.02-0.01-0.03-0.03C8.17,0.88,8.16,0.88,8.16,0.87c-0.01,0-0.02-0.01-0.02-0.02l0,0c-0.01,0-0.02-0.01-0.03-0.02
			c0,0-0.01,0-0.01-0.01c-0.01,0-0.02-0.01-0.02-0.02l0,0c-0.01,0-0.02-0.01-0.02-0.02l0,0c0,0-0.01,0-0.01,0c0,0,0,0-0.01,0
			c0,0-0.01-0.01-0.01-0.01C8.02,0.76,8.01,0.75,8,0.74c-0.01,0-0.02-0.01-0.02-0.02l0,0c-0.01,0-0.02-0.01-0.03-0.02
			c0,0-0.01,0-0.01-0.01c-0.01,0-0.01,0-0.02-0.01C7.9,0.66,7.88,0.63,7.85,0.61C7.82,0.6,7.8,0.59,7.79,0.57
			C7.68,0.52,7.57,0.48,7.45,0.46C7.17,0.43,6.9,0.42,6.62,0.41c-0.08,0-0.16,0-0.24,0.03c-0.11,0.04-0.2,0.12-0.27,0.2
			C6.06,0.7,6.02,0.77,5.97,0.83c0,0.01-0.01,0.02-0.02,0.03C5.94,0.88,5.93,0.9,5.91,0.91C5.9,0.93,5.89,0.95,5.88,0.96
			C5.86,0.98,5.85,1,5.84,1.02c0,0.02-0.01,0.03-0.02,0.04C5.79,1.09,5.77,1.12,5.76,1.14c0,0.01,0,0.02-0.01,0.02
			c0,0.01-0.01,0.01-0.01,0.02c0,0.01-0.01,0.02-0.02,0.03C5.68,1.3,5.64,1.4,5.61,1.49c-0.02,0.07-0.02,0.15-0.07,0.2
			c-0.05,0.05-0.13,0.06-0.2,0.09C5.18,1.85,5.03,1.91,4.89,2.01C4.68,2.16,4.66,2.5,4.85,2.66c0.01,0,0.01,0,0.02,0.01
			c0,0,0.01,0,0.01,0.01c0.01,0.01,0.03,0.02,0.04,0.02C4.95,2.7,4.97,2.71,5,2.71l0.01,0c0.03,0,0.05,0,0.08,0c0,0,0,0,0,0
			c0,0,0,0,0,0c0,0,0.01,0,0.01,0c0,0,0.01,0,0.01,0c0.01,0,0.02,0,0.04,0c0.01,0,0.02,0,0.03,0c0,0,0,0,0,0c0,0,0,0,0,0
			c0.03,0,0.06,0,0.09,0C5.39,2.7,5.34,2.71,5.44,2.68L5.58,2.55z M5.48,2.65 M7.97,2.23C7.87,2.24,7.78,2.24,7.68,2.25
			C7.47,2.26,7.25,2.26,7.04,2.2C6.88,2.16,6.72,2.11,6.57,2.06c-0.18-0.06-0.36-0.1-0.53-0.15c-0.1-0.03-0.2-0.06-0.3-0.06
			c-0.1-0.01-0.2,0.01-0.3,0.02c-0.02,0-0.04,0.01-0.05,0c-0.01,0-0.01,0-0.02,0c0,0.01-0.01,0.02-0.02,0.02
			C5.11,1.96,4.92,2.07,4.8,2.26C4.8,2.2,4.82,2.15,4.87,2.11c0.09-0.08,0.19-0.14,0.29-0.19c0.12-0.05,0.25-0.1,0.37-0.16
			C5.6,1.73,5.67,1.74,5.74,1.74c0.11,0,0.22,0.02,0.33,0.03C6.22,1.79,6.36,1.81,6.5,1.83c0.16,0.03,0.32,0.05,0.48,0.08
			c0.19,0.03,0.38,0.06,0.57,0.09c0.16,0.03,0.33,0.06,0.49,0.12c0.01,0,0.01,0.01,0.01,0.01c0.05,0,0.09,0.03,0.14,0.06
			C8.11,2.21,8.04,2.22,7.97,2.23z M8.62,1.81c0,0.02,0,0.04,0,0.06c0.01,0.08,0.02,0.17,0.02,0.25c0,0.01,0,0.02-0.01,0.03
			c0,0,0,0,0,0.01c0,0-0.01,0.01-0.01,0.01c0,0,0,0-0.01,0.01c-0.01,0-0.01,0.01-0.02,0.01C8.56,2.2,8.52,2.22,8.5,2.25
			c0,0-0.01,0-0.01,0.01c0,0,0,0,0,0c0,0,0,0-0.01,0c0,0,0,0-0.01,0c0,0-0.01,0-0.01,0c0,0,0,0,0,0c-0.01,0-0.01,0-0.02-0.01
			c0,0,0,0,0,0c0,0,0,0,0,0c-0.07-0.06-0.15-0.1-0.24-0.13c0,0,0,0-0.01,0c0,0,0,0,0,0c0,0-0.01,0-0.01-0.01c0,0,0,0,0,0
			c0,0,0,0,0,0c0,0,0,0-0.01-0.01c0,0-0.01-0.01-0.01-0.01c0,0,0,0,0,0c0-0.01,0-0.01-0.01-0.02c-0.02-0.1-0.05-0.2-0.08-0.31
			C8.04,1.61,8.02,1.47,8.03,1.32c0-0.01,0-0.02,0-0.04C8.03,1.23,8.06,1.17,8.05,1.11c0-0.03,0-0.06,0.01-0.09
			c0.02,0,0.02,0.02,0.02,0.03C8.1,1.18,8.14,1.29,8.21,1.39c0.03,0.04,0.06,0.07,0.1,0.1c0.08,0.07,0.16,0.14,0.23,0.22
			c0.02,0.02,0.01,0.06,0.05,0.06c0.04-0.28-0.1-0.49-0.3-0.67c-0.11-0.1-0.23-0.19-0.34-0.3c-0.12-0.14-0.29-0.2-0.47-0.23
			S7.12,0.53,6.93,0.53c0,0.02,0.01,0.02,0.03,0.03C7.02,0.57,7.09,0.6,7.14,0.64c0.06,0.04,0.11,0.04,0.17,0.04
			c0.1,0,0.21,0,0.31,0.02c0.11,0.02,0.2,0.08,0.28,0.15C7.91,0.86,7.92,0.88,7.92,0.9C7.94,1.05,7.97,1.2,7.99,1.36
			C8,1.45,8,1.55,8.02,1.65c0.02,0.1,0.03,0.2,0.05,0.3C8.08,2,8.08,2,8.03,1.99C7.96,1.97,7.9,1.96,7.83,1.95
			C7.69,1.92,7.54,1.89,7.39,1.87C7.14,1.83,6.88,1.81,6.62,1.79C6.46,1.77,6.31,1.74,6.15,1.72C6.06,1.71,5.97,1.69,5.88,1.69
			c-0.02,0-0.04,0-0.06-0.01c-0.06,0-0.12,0-0.18,0c-0.02,0-0.03-0.01-0.02-0.03C5.68,1.44,5.76,1.23,5.9,1.04
			C6,0.91,6.09,0.76,6.2,0.63c0.1-0.11,0.23-0.17,0.38-0.16c0.08,0,0.16,0,0.24,0.01C7,0.49,7.18,0.49,7.36,0.51
			c0.23,0.03,0.43,0.11,0.59,0.26C8.08,0.9,8.21,1.01,8.34,1.13C8.55,1.31,8.65,1.54,8.62,1.81z"/>
		<path class="st9" d="M8.02,1.65C8,1.55,8,1.45,7.99,1.36C7.97,1.2,7.94,1.05,7.92,0.9c0-0.02-0.01-0.04-0.02-0.05
			C7.82,0.77,7.73,0.72,7.62,0.7c-0.1-0.02-0.2-0.02-0.31-0.02c-0.06,0-0.12,0-0.17-0.04C7.09,0.6,7.02,0.57,6.96,0.56
			c-0.02,0-0.03-0.01-0.03-0.03c-0.12,0-0.25,0-0.37,0.03C6.45,0.58,6.33,0.61,6.26,0.71c-0.04,0.05-0.07,0.1-0.1,0.16
			c-0.06,0.1-0.12,0.2-0.22,0.27C5.84,1.21,5.79,1.3,5.76,1.41C5.74,1.47,5.73,1.53,5.72,1.59c-0.01,0.03,0,0.04,0.03,0.06
			c0.03,0.01,0.06,0.01,0.08,0.04c0.02,0.01,0.04,0.01,0.06,0.01c0.09,0,0.18,0.01,0.27,0.03c0.15,0.02,0.31,0.06,0.46,0.07
			c0.26,0.02,0.52,0.04,0.78,0.08c0.15,0.02,0.29,0.05,0.44,0.08c0.07,0.01,0.13,0.02,0.2,0.04C8.08,2,8.08,2,8.07,1.95
			C8.05,1.85,8.04,1.75,8.02,1.65z"/>
		<path class="st9" d="M7.04,2.2C6.88,2.16,6.72,2.11,6.57,2.06c-0.18-0.06-0.36-0.1-0.53-0.15c-0.1-0.03-0.2-0.06-0.3-0.06
			c-0.1-0.01-0.2,0.01-0.3,0.02c-0.02,0-0.04,0.01-0.05,0C5.46,1.83,5.55,1.8,5.65,1.78c0.13-0.02,0.26,0,0.38,0
			c0.02,0,0.04,0.01,0.04-0.02C6.22,1.79,6.36,1.81,6.5,1.83c0.16,0.03,0.32,0.05,0.48,0.08c0.19,0.03,0.38,0.06,0.57,0.09
			c0.16,0.03,0.33,0.06,0.49,0.12c0.01,0,0.01,0.01,0.01,0.01C7.99,2.16,7.92,2.16,7.86,2.18C7.69,2.21,7.51,2.22,7.34,2.22
			c-0.06,0-0.13,0-0.19-0.02C7.11,2.2,7.07,2.19,7.04,2.2z"/>
		<path class="st10" d="M6.93,0.53c-0.12,0-0.25,0-0.37,0.03C6.45,0.58,6.33,0.61,6.26,0.71c-0.04,0.05-0.07,0.1-0.1,0.16
			c-0.06,0.1-0.12,0.2-0.22,0.27C5.84,1.21,5.79,1.3,5.76,1.41C5.74,1.47,5.73,1.53,5.72,1.59c-0.01,0.03,0,0.04,0.03,0.06
			c0.03,0.01,0.06,0.01,0.08,0.04c-0.06,0-0.12,0-0.18,0c-0.02,0-0.03-0.01-0.02-0.03C5.68,1.44,5.76,1.23,5.9,1.04
			C6,0.91,6.09,0.76,6.2,0.63c0.1-0.11,0.23-0.17,0.38-0.16c0.08,0,0.16,0,0.24,0.01C7,0.49,7.18,0.49,7.36,0.51
			c0.23,0.03,0.43,0.11,0.59,0.26C8.08,0.9,8.21,1.01,8.34,1.13c0.21,0.18,0.31,0.41,0.28,0.68c0,0.02,0,0.04,0,0.06
			c0.01,0.08,0.02,0.17,0.02,0.25c0,0.03-0.01,0.04-0.03,0.06C8.57,2.2,8.53,2.23,8.48,2.26c-0.02,0.01-0.03,0.01-0.05,0
			C8.36,2.2,8.27,2.16,8.18,2.11C8.16,2.1,8.15,2.08,8.15,2.06c-0.02-0.1-0.05-0.2-0.08-0.31C8.04,1.61,8.02,1.47,8.03,1.32
			c0-0.01,0-0.02,0-0.04c0.01,0.01,0.01,0.02,0.01,0.04c0,0.06,0,0.11,0.01,0.17C8.07,1.58,8.08,1.68,8.1,1.77
			c0.03,0.08,0.05,0.17,0.08,0.25c0.01,0.03,0.03,0.04,0.05,0.03c0.05-0.02,0.11-0.02,0.17,0c0.06,0.01,0.12,0.04,0.17,0.08
			C8.6,2.13,8.61,2.13,8.61,2.1c0.01-0.07,0-0.15-0.01-0.22c0-0.03-0.02-0.06-0.01-0.1c0.04-0.28-0.1-0.49-0.3-0.67
			c-0.11-0.1-0.23-0.19-0.34-0.3c-0.12-0.14-0.29-0.2-0.47-0.23C7.3,0.54,7.12,0.53,6.93,0.53z"/>
		<path class="st9" d="M8.59,1.78c-0.01,0.03,0,0.07,0.01,0.1C8.61,1.95,8.62,2.03,8.61,2.1c0,0.03-0.01,0.03-0.03,0.01
			C8.53,2.08,8.47,2.05,8.41,2.04c-0.06-0.01-0.11-0.01-0.17,0c-0.03,0.01-0.05,0-0.05-0.03C8.16,1.93,8.13,1.85,8.1,1.77
			C8.08,1.68,8.07,1.58,8.05,1.49C8.05,1.43,8.05,1.38,8.05,1.32c0-0.01,0-0.03-0.01-0.04C8.03,1.23,8.06,1.17,8.05,1.11
			c0-0.03,0-0.06,0.01-0.09c0.02,0,0.02,0.02,0.02,0.03C8.1,1.18,8.14,1.29,8.21,1.39c0.03,0.04,0.06,0.07,0.1,0.1
			c0.08,0.07,0.16,0.14,0.23,0.22C8.56,1.74,8.55,1.78,8.59,1.78z"/>
		<path class="st10" d="M6.07,1.77c0,0.03-0.02,0.02-0.04,0.02c-0.13-0.01-0.26-0.02-0.38,0C5.55,1.8,5.46,1.83,5.37,1.87
			c-0.01,0-0.01,0-0.02,0c-0.01,0-0.02,0.01-0.02,0.02C5.11,1.96,4.92,2.07,4.8,2.26C4.8,2.2,4.82,2.15,4.87,2.11
			c0.09-0.08,0.19-0.14,0.3-0.19c0.12-0.05,0.25-0.1,0.37-0.16C5.6,1.73,5.67,1.74,5.74,1.74C5.85,1.74,5.96,1.76,6.07,1.77z"/>
		<path class="st10" d="M7.04,2.2c0.04-0.02,0.07,0,0.1,0c0.06,0.02,0.13,0.02,0.19,0.02c0.18,0,0.35-0.01,0.52-0.05
			c0.06-0.01,0.13-0.02,0.19-0.04c0.05,0,0.09,0.03,0.14,0.06C8.11,2.21,8.04,2.22,7.97,2.23C7.87,2.24,7.78,2.24,7.68,2.25
			C7.47,2.26,7.25,2.26,7.04,2.2z"/>
		<path class="st9" d="M5.33,1.9c0-0.01,0.01-0.02,0.02-0.02C5.35,1.89,5.35,1.9,5.33,1.9z"/>
		<path class="st11" d="M8.56,2.28C8.54,2.3,8.51,2.31,8.49,2.32L8.56,2.28z"/>
	</g>
	<g>
		<path d="M13.58,2.66c-0.1,0.12-0.21,0.27-0.33,0.45c0.11,0.15,0.19,0.3,0.26,0.45h-0.02c-0.04-0.04-0.11-0.11-0.19-0.19V3.4
			c0.02,0.05,0.07,0.12,0.13,0.2c0.07,0.09,0.12,0.16,0.14,0.2h0c0,0.01,0,0.02,0,0.02c-0.02,0-0.04-0.01-0.05-0.03
			c-0.01-0.02-0.02-0.03-0.03-0.05L13.44,3.7c-0.01,0.01-0.02,0.02-0.02,0.03c0,0.01,0.01,0.02,0.03,0.05
			c0.02,0.02,0.03,0.04,0.03,0.05c-0.01,0.02-0.03,0.02-0.05,0.01C13.37,3.78,13.3,3.7,13.23,3.6c-0.08-0.12-0.14-0.2-0.17-0.24
			C13.05,3.37,13.03,3.4,13,3.44c-0.03,0.04-0.05,0.07-0.07,0.08c0,0,0-0.01-0.01-0.02l-0.02,0.02c0,0,0,0.01,0,0.01
			c0,0.02-0.02,0.04-0.05,0.07c-0.04,0.04-0.07,0.06-0.07,0.07c-0.02,0.02-0.05,0.04-0.08,0.06c-0.03,0.02-0.07,0.03-0.09,0.03
			C12.6,3.79,12.58,3.8,12.58,3.8c0,0-0.01,0-0.01-0.01c0,0.02-0.01,0.04-0.03,0.08c-0.01,0.01-0.03,0.02-0.04,0.03
			c-0.01,0.01-0.03,0.02-0.04,0.02c-0.01,0-0.02,0-0.02-0.01c-0.01-0.01-0.01-0.01-0.01-0.02c0-0.02,0.01-0.05,0.04-0.08
			c0.03-0.03,0.05-0.05,0.05-0.06c0.03-0.06,0.09-0.13,0.16-0.22c0.08-0.1,0.13-0.16,0.16-0.21c0-0.01,0-0.02,0-0.04
			c0-0.02,0.02-0.08,0.05-0.16c-0.02-0.01-0.07-0.07-0.17-0.17c-0.06-0.07-0.13-0.11-0.18-0.12c0,0,0-0.01,0-0.01
			c0-0.01,0-0.02-0.01-0.02c-0.01-0.01-0.01-0.01-0.02-0.02c0-0.01,0.01-0.02,0.02-0.02c0.01,0,0.02,0,0.03,0.01
			c0.02,0.01,0.03,0.01,0.03,0.01c0.05,0.04,0.1,0.07,0.14,0.09c-0.02-0.04-0.06-0.08-0.11-0.14c0.01-0.01,0.02-0.01,0.03-0.01
			c0,0,0.01,0,0.03,0c0.01,0,0.02,0,0.03,0c0.01,0,0.01,0,0.02,0c-0.01-0.02-0.03-0.04-0.04-0.07c-0.01-0.03-0.02-0.05-0.03-0.07
			c0-0.01,0-0.02,0-0.02c0-0.01,0-0.01,0.01-0.01c0.03,0,0.07,0.02,0.1,0.05c0.03,0.03,0.05,0.06,0.08,0.09
			c0.03,0.04,0.06,0.08,0.09,0.12c0.04,0.05,0.08,0.08,0.11,0.11c0.03-0.01,0.06-0.04,0.1-0.07c0.05-0.04,0.08-0.07,0.1-0.08
			c0.02-0.01,0.06-0.05,0.12-0.1c0.04-0.04,0.08-0.07,0.12-0.07c0,0.01,0,0.02-0.01,0.03c-0.01,0.01-0.01,0.02-0.01,0.02
			c0,0,0,0.01,0,0.01c0.03-0.02,0.06-0.03,0.08-0.03c0,0,0.01,0.01,0.01,0.01C13.58,2.66,13.58,2.66,13.58,2.66z M12.58,3.78V3.76
			l-0.02-0.01L12.58,3.78z M12.66,3.61c0,0-0.01,0.01-0.03,0.04c-0.01,0.02-0.03,0.04-0.05,0.08h0.03c0-0.01,0-0.02,0-0.02
			C12.6,3.69,12.62,3.66,12.66,3.61z M12.85,2.72c-0.04-0.06-0.09-0.1-0.15-0.13C12.74,2.66,12.79,2.7,12.85,2.72z M12.83,3.48
			c-0.01,0.01-0.03,0.05-0.08,0.1c-0.03,0.04-0.05,0.08-0.06,0.11h0.02c0.02-0.02,0.04-0.06,0.06-0.11
			C12.8,3.54,12.82,3.5,12.83,3.48z M12.82,2.85c-0.01-0.02-0.02-0.05-0.05-0.08c0,0.01-0.01,0.01-0.01,0.02c0,0.01,0,0.01,0,0.02
			c0.01,0,0.01,0.01,0.02,0.03C12.79,2.84,12.81,2.85,12.82,2.85z M12.94,3.18l-0.02-0.02c-0.04,0.03-0.05,0.07-0.05,0.11
			c0,0.01,0,0.01,0,0.02L12.94,3.18z M13.09,2.99c-0.01,0-0.01-0.01-0.02-0.01c-0.01,0-0.01,0.01,0.01,0.03
			C13.08,3.01,13.09,3,13.09,2.99z M13.16,2.91l-0.05,0.04h0.02C13.13,2.94,13.14,2.93,13.16,2.91z M13.4,3.4
			c-0.02-0.04-0.04-0.08-0.08-0.13c-0.03-0.04-0.06-0.08-0.09-0.12L13.2,3.19C13.24,3.25,13.31,3.31,13.4,3.4z M13.35,2.9V2.89
			l-0.03,0.04L13.35,2.9z"/>
	</g>
	<g>
		<path d="M16.49,2.89C16.35,2.95,16.19,3.04,16,3.15c0.03,0.18,0.05,0.36,0.04,0.52l-0.02-0.01C16,3.6,15.97,3.52,15.94,3.41
			l-0.01,0.03c0,0.06,0.01,0.14,0.03,0.24C15.98,3.78,16,3.87,16,3.91l0,0C16,3.93,15.99,3.93,15.99,3.93
			c-0.02-0.01-0.03-0.03-0.03-0.05c0-0.02,0-0.04-0.01-0.06l-0.03-0.07c-0.02,0-0.03,0.01-0.03,0.02c0,0.01,0,0.03,0,0.05
			c0.01,0.03,0.01,0.05,0,0.06c-0.02,0.02-0.03,0.01-0.05-0.02c-0.02-0.07-0.05-0.17-0.07-0.29c-0.02-0.15-0.04-0.25-0.05-0.29
			c-0.02,0-0.05,0.02-0.09,0.04c-0.04,0.02-0.07,0.04-0.1,0.05c0,0,0-0.01,0-0.02l-0.03,0.01c0,0,0,0.01,0,0.01
			c-0.01,0.01-0.03,0.03-0.07,0.04c-0.06,0.02-0.09,0.03-0.09,0.03c-0.03,0.01-0.06,0.02-0.1,0.03c-0.04,0.01-0.07,0-0.1-0.02
			c-0.03,0.01-0.04,0.02-0.05,0.01c0,0-0.01-0.01-0.01-0.01c-0.01,0.01-0.03,0.03-0.06,0.06c-0.02,0-0.03,0.01-0.05,0.01
			c-0.02,0-0.03,0-0.04,0c-0.01,0-0.01-0.01-0.02-0.02c0-0.01,0-0.02,0-0.02c0.01-0.02,0.03-0.03,0.07-0.05
			c0.04-0.02,0.06-0.03,0.07-0.04c0.05-0.04,0.13-0.08,0.24-0.13c0.11-0.05,0.19-0.09,0.23-0.12c0-0.01,0.01-0.02,0.01-0.04
			C15.56,3.11,15.6,3.07,15.67,3c-0.01-0.02-0.04-0.1-0.08-0.23c-0.03-0.09-0.07-0.15-0.11-0.19c0,0,0.01-0.01,0.01-0.01
			c0-0.01,0-0.02,0-0.02c0-0.01-0.01-0.02-0.01-0.03c0.01-0.01,0.02-0.01,0.03-0.01c0.01,0,0.02,0.01,0.03,0.03
			c0.01,0.01,0.02,0.02,0.02,0.02c0.03,0.06,0.06,0.11,0.08,0.14c0-0.04-0.02-0.1-0.04-0.18c0.01,0,0.02,0,0.03,0
			c0,0,0.01,0.01,0.02,0.01c0.01,0.01,0.02,0.01,0.02,0.01c0.01,0,0.01,0.01,0.02,0.01c-0.01-0.02-0.01-0.05,0-0.08
			c0-0.03,0-0.06,0-0.07c0-0.01,0.01-0.01,0.01-0.02c0-0.01,0.01-0.01,0.02-0.01c0.03,0.02,0.05,0.05,0.07,0.09
			c0.01,0.04,0.02,0.08,0.03,0.12c0.01,0.05,0.02,0.1,0.03,0.15c0.02,0.06,0.03,0.11,0.05,0.15c0.03,0,0.07-0.01,0.12-0.02
			c0.06-0.02,0.1-0.02,0.12-0.03c0.02,0,0.07-0.02,0.15-0.04c0.06-0.02,0.1-0.02,0.14-0.02c0,0.01-0.01,0.02-0.02,0.02
			c-0.01,0.01-0.02,0.01-0.02,0.01c0,0,0,0.01,0,0.01c0.04-0.01,0.07-0.01,0.08,0.01c0,0,0,0.01,0,0.01
			C16.5,2.88,16.49,2.89,16.49,2.89z M15.11,3.48l0.01-0.02l-0.01-0.02L15.11,3.48z M15.25,3.35c0,0-0.02,0.01-0.05,0.02
			c-0.02,0.01-0.04,0.02-0.07,0.05l0.02,0.01c0-0.01,0-0.02,0.01-0.02C15.17,3.4,15.2,3.38,15.25,3.35z M15.46,3.31
			c-0.01,0.01-0.05,0.03-0.12,0.06c-0.05,0.02-0.08,0.05-0.1,0.07l0.02,0.01c0.03-0.01,0.06-0.03,0.1-0.07
			C15.41,3.35,15.44,3.32,15.46,3.31z M15.69,3.08l-0.01-0.03c-0.05,0.01-0.08,0.04-0.09,0.07c0,0.01,0,0.01-0.01,0.02L15.69,3.08z
			 M15.72,2.73c0-0.02,0-0.05-0.01-0.09c-0.01,0-0.01,0.01-0.02,0.01c-0.01,0.01-0.01,0.01,0,0.02c0,0.01,0.01,0.02,0.01,0.04
			C15.71,2.71,15.71,2.72,15.72,2.73z M15.8,2.62c-0.01-0.07-0.04-0.13-0.08-0.18C15.73,2.53,15.76,2.59,15.8,2.62z M15.91,2.97
			c0-0.01-0.01-0.01-0.01-0.01c-0.01,0-0.01,0.01-0.01,0.03C15.9,2.99,15.9,2.98,15.91,2.97z M16.02,3.48c0-0.04,0-0.09-0.02-0.15
			c-0.01-0.05-0.02-0.1-0.03-0.15l-0.05,0.03C15.94,3.27,15.97,3.36,16.02,3.48z M16.01,2.93l-0.06,0.01l0.01,0.01
			C15.96,2.95,15.98,2.94,16.01,2.93z M16.18,3.01l0.01-0.01l-0.04,0.03L16.18,3.01z"/>
	</g>
	<g>
		<path d="M4.31,2.93c-0.05,0.13-0.1,0.29-0.14,0.48c0.14,0.1,0.25,0.2,0.35,0.3L4.5,3.71c-0.05-0.02-0.12-0.06-0.21-0.1L4.3,3.64
			c0.04,0.04,0.09,0.08,0.17,0.13c0.09,0.06,0.14,0.1,0.18,0.13l0,0c0,0.01,0.01,0.02,0,0.02c-0.02,0-0.03,0-0.05-0.01
			C4.59,3.89,4.58,3.87,4.56,3.86L4.5,3.84C4.49,3.85,4.49,3.86,4.49,3.87c0,0.01,0.01,0.02,0.04,0.03
			c0.02,0.01,0.03,0.02,0.04,0.04c0,0.02-0.01,0.03-0.04,0.02C4.47,3.93,4.39,3.88,4.3,3.82C4.19,3.74,4.12,3.69,4.09,3.67
			C4.08,3.69,4.07,3.72,4.06,3.76C4.05,3.8,4.04,3.83,4.03,3.84c0,0,0-0.01-0.01-0.01L4.01,3.86c0,0,0,0.01,0.01,0.01
			c0,0.01,0,0.04-0.02,0.07C3.97,3.99,3.95,4.01,3.95,4.02C3.94,4.04,3.92,4.07,3.91,4.1C3.89,4.13,3.86,4.14,3.84,4.15
			C3.83,4.17,3.82,4.18,3.81,4.19c0,0-0.01,0-0.01,0c0,0.01,0,0.04,0,0.07C3.79,4.27,3.78,4.28,3.77,4.29
			C3.76,4.31,3.75,4.31,3.74,4.32c-0.01,0-0.01,0-0.02,0c-0.01,0-0.01-0.01-0.01-0.01c-0.01-0.02,0-0.04,0.01-0.08
			c0.01-0.03,0.02-0.06,0.02-0.07C3.75,4.1,3.78,4.02,3.81,3.93c0.04-0.1,0.06-0.18,0.07-0.22C3.88,3.7,3.88,3.69,3.87,3.68
			c-0.01-0.02-0.01-0.07,0-0.15C3.85,3.52,3.78,3.49,3.68,3.43C3.6,3.39,3.54,3.38,3.49,3.38c0,0,0-0.01,0-0.01
			c0-0.01-0.01-0.01-0.02-0.02c-0.01,0-0.02-0.01-0.02-0.01c0-0.01,0-0.02,0.01-0.02c0.01,0,0.02,0,0.03,0c0.02,0,0.02,0,0.03,0
			c0.06,0.02,0.11,0.03,0.14,0.03C3.64,3.34,3.59,3.31,3.53,3.27c0-0.01,0.01-0.02,0.02-0.02c0,0,0.01,0,0.02,0
			c0.01,0,0.02,0,0.02-0.01c0.01,0,0.01,0,0.01-0.01C3.6,3.23,3.58,3.21,3.56,3.19C3.54,3.17,3.53,3.15,3.51,3.14
			c0-0.01,0-0.01,0-0.02c0-0.01,0-0.01,0.01-0.01c0.03-0.01,0.06,0,0.1,0.01c0.03,0.02,0.06,0.03,0.09,0.05
			C3.75,3.2,3.79,3.22,3.83,3.25c0.05,0.03,0.09,0.05,0.13,0.06C3.97,3.29,4,3.26,4.02,3.22c0.03-0.05,0.05-0.08,0.06-0.1
			C4.09,3.11,4.12,3.07,4.15,3C4.18,2.95,4.2,2.92,4.23,2.9c0,0.01,0.01,0.01,0,0.02c0,0.01,0,0.02,0,0.02c0,0,0,0.01,0.01,0.01
			C4.26,2.93,4.28,2.92,4.3,2.91c0,0,0.01,0,0.01,0.01C4.31,2.93,4.31,2.93,4.31,2.93z M3.71,3.2c-0.05-0.04-0.1-0.06-0.17-0.06
			C3.6,3.19,3.66,3.21,3.71,3.2z M3.73,3.32C3.72,3.3,3.69,3.28,3.66,3.26c0,0.01,0,0.01,0,0.02c0,0.01,0,0.01,0.01,0.01
			c0.01,0,0.02,0.01,0.03,0.02C3.71,3.32,3.72,3.32,3.73,3.32z M3.81,4.17L3.8,4.16L3.79,4.15L3.81,4.17z M3.82,4.01
			c0,0-0.01,0.02-0.01,0.04C3.8,4.07,3.8,4.09,3.79,4.13l0.02-0.01c0-0.01-0.01-0.01-0.01-0.02C3.8,4.09,3.81,4.06,3.82,4.01z
			 M3.93,3.85c0,0.01-0.01,0.05-0.03,0.11C3.88,4,3.87,4.04,3.88,4.07L3.9,4.06C3.91,4.04,3.91,4,3.92,3.95
			C3.92,3.9,3.92,3.87,3.93,3.85z M3.93,3.56L3.91,3.54c-0.02,0.04-0.02,0.07-0.01,0.1c0,0.01,0,0.01,0.01,0.01L3.93,3.56z
			 M3.99,3.36c-0.01,0-0.01,0-0.02,0c-0.01,0.01,0,0.01,0.01,0.02C4,3.37,4,3.37,3.99,3.36z M4.03,3.27L4,3.31l0.01,0
			C4.02,3.31,4.02,3.29,4.03,3.27z M4.38,3.61c-0.02-0.03-0.06-0.05-0.1-0.08C4.24,3.5,4.2,3.47,4.16,3.45L4.15,3.49
			C4.2,3.52,4.28,3.56,4.38,3.61z M4.19,3.2l0-0.01L4.18,3.23L4.19,3.2z"/>
	</g>
	<g>
		<path class="st1" d="M6.47,1.48c0,0-0.01,0-0.02-0.01c-0.01,0-0.01-0.01-0.02-0.02C6.43,1.45,6.43,1.43,6.43,1.42
			c0-0.02,0.01-0.03,0.03-0.04c0,0,0.01,0,0.02,0c0.01,0,0.02,0,0.03,0c0,0,0.01,0,0.03,0.01c0.02,0,0.03,0.01,0.04,0.01
			c0,0,0,0,0.01,0c0.01,0,0.03-0.01,0.04-0.01c0.02,0,0.03-0.01,0.05-0.01l0,0c0,0,0.01,0,0.01-0.01c0,0,0,0,0,0c0,0,0,0,0,0
			c0-0.01,0-0.02,0-0.02C6.69,1.32,6.67,1.3,6.64,1.29C6.62,1.28,6.61,1.27,6.59,1.26c-0.01,0-0.01-0.01-0.02-0.01
			c0,0-0.01,0-0.01,0c0,0-0.01,0-0.02,0.01L6.52,1.27c-0.02,0.01-0.04,0-0.05-0.01c0,0-0.01-0.01-0.01-0.01l0-0.01
			c0-0.01,0-0.01,0-0.02c0-0.02,0.01-0.03,0.02-0.04c0,0,0.01-0.01,0.02-0.01c0,0,0.01,0,0.01-0.01l0,0c0,0,0,0,0-0.01
			c0-0.01-0.01-0.02-0.01-0.02c-0.01-0.02-0.01-0.03,0-0.05C6.5,1.08,6.51,1.07,6.53,1.08c0.02,0,0.03,0.01,0.04,0.01
			C6.59,1.1,6.6,1.11,6.61,1.13c0,0.01,0,0.01,0.01,0.02c0,0.01,0,0.02,0.01,0.02C6.63,1.2,6.64,1.21,6.65,1.22c0,0,0.01,0,0.01,0
			c0.01,0,0.01,0.01,0.02,0.01c0.01,0,0.03,0.01,0.05,0.01c0-0.01,0-0.02,0-0.02c0-0.02-0.01-0.03-0.02-0.04
			C6.7,1.17,6.69,1.16,6.67,1.14L6.66,1.13C6.65,1.12,6.65,1.12,6.64,1.11C6.62,1.09,6.61,1.07,6.61,1.05C6.6,1.03,6.61,1,6.63,0.97
			c0.02-0.04,0.05-0.07,0.09-0.1c0.02-0.01,0.03-0.03,0.04-0.03c0.02-0.01,0.05-0.02,0.08-0.02c0.03,0,0.06,0,0.08,0
			c0.03,0,0.05,0.01,0.07,0.02c0.04,0.01,0.07,0.04,0.08,0.07c0.02,0.04,0,0.1-0.04,0.18c0,0.01-0.01,0.02-0.02,0.03
			C7.01,1.14,7,1.15,7,1.16C6.99,1.18,6.99,1.19,6.99,1.2c0,0.01,0,0.03,0,0.05l0,0c0,0,0.01,0,0.01,0l0,0c0,0,0,0,0.01-0.01
			c0,0,0.01-0.01,0.01-0.01C7.05,1.21,7.07,1.2,7.08,1.19c0,0,0.01-0.01,0.01-0.02c0-0.01,0.01-0.02,0.01-0.03
			c0.01-0.01,0.01-0.02,0.01-0.03c0.02-0.04,0.04-0.05,0.06-0.06c0.02,0,0.04,0,0.05,0.02C7.24,1.09,7.24,1.1,7.24,1.12
			c0,0.01-0.01,0.03-0.01,0.04L7.22,1.18l0,0c0.01,0,0.01,0,0.01,0c0.01,0,0.01,0.01,0.02,0.01c0.01,0,0.02,0.01,0.02,0.02
			c0,0.01,0,0.02-0.01,0.03C7.25,1.25,7.24,1.26,7.23,1.27C7.22,1.27,7.21,1.27,7.19,1.27c-0.02,0-0.03,0-0.04,0
			c-0.02,0-0.04,0.01-0.06,0.02C7.06,1.3,7.04,1.31,7.02,1.33c0,0,0,0,0,0.01c0.01,0.02,0.01,0.04,0,0.05
			c0.03,0.02,0.06,0.04,0.09,0.05c0,0,0.01,0,0.01,0c0.01,0,0.01,0,0.02,0c0.01,0,0.01,0,0.02,0c0.01,0,0.02,0,0.02,0
			c0.02,0,0.03,0,0.04,0.01c0.01,0,0.02,0.01,0.03,0.02C7.25,1.48,7.26,1.5,7.25,1.51c0,0.01-0.01,0.03-0.03,0.03c0,0-0.01,0-0.01,0
			c0,0-0.01,0-0.01,0c-0.01,0-0.01,0-0.02,0c0.01,0.01,0.01,0.03,0.01,0.04c0,0.02-0.01,0.03-0.02,0.04c-0.01,0.01-0.03,0.01-0.05,0
			c-0.01,0-0.02-0.01-0.02-0.02c0,0-0.01,0-0.01-0.01C7.08,1.6,7.07,1.59,7.07,1.58C7.06,1.57,7.06,1.55,7.06,1.54L7.05,1.53
			C7.04,1.5,7.03,1.48,7.02,1.47C7,1.46,6.99,1.45,6.97,1.44l0,0c-0.01,0-0.02,0.01-0.03,0.01c-0.01,0-0.02,0.01-0.03,0.01
			c-0.04,0.01-0.07,0.02-0.1,0.01C6.78,1.47,6.75,1.46,6.74,1.44C6.7,1.45,6.67,1.46,6.65,1.47c0,0-0.01,0.01-0.01,0.01
			c0,0-0.01,0.01-0.01,0.01L6.61,1.5c0,0-0.01,0.01-0.01,0.01c0,0.01-0.01,0.01-0.01,0.01c0,0.01-0.01,0.01-0.01,0.02
			c0,0.01-0.01,0.01-0.01,0.01C6.55,1.57,6.53,1.58,6.52,1.58c-0.03,0-0.05,0-0.06-0.02c-0.01-0.02-0.01-0.04,0-0.06
			C6.46,1.49,6.47,1.49,6.47,1.48z M6.71,1.39C6.7,1.4,6.68,1.4,6.67,1.41c-0.01,0-0.03,0-0.05,0C6.6,1.42,6.58,1.42,6.56,1.42
			c-0.01,0-0.02,0-0.03-0.01c0,0-0.01,0-0.01-0.01c-0.01,0-0.01,0-0.01-0.01c-0.02-0.01-0.04-0.01-0.05,0
			c-0.01,0.01-0.01,0.02,0,0.04l0,0c0.01,0.01,0.02,0.02,0.04,0.02c0,0,0.01,0,0.02,0l0.01,0l0,0l0,0l0,0c0,0,0,0,0.01,0
			c0,0,0,0.01,0,0.01c0,0,0,0,0,0c0,0,0,0,0,0c0,0,0,0,0,0c0,0,0,0,0,0c0,0,0,0,0,0l0,0l0,0c0,0,0,0-0.01,0.01
			C6.49,1.49,6.49,1.5,6.49,1.5C6.48,1.51,6.47,1.52,6.48,1.53c0,0.01,0.01,0.02,0.03,0.02c0.01,0,0.01,0,0.02,0l0,0
			c0.01,0,0.02-0.02,0.03-0.04c0,0,0-0.01,0-0.01c0-0.01,0-0.01,0-0.01c0,0,0-0.01,0.01-0.01c0,0,0-0.01,0.01-0.01
			c0.01-0.02,0.03-0.03,0.06-0.04c0.03-0.01,0.05-0.02,0.07-0.02c0,0,0,0,0,0l0,0l0,0c0-0.01-0.01-0.01-0.01-0.02
			C6.71,1.4,6.71,1.4,6.71,1.39L6.71,1.39z M6.46,1.52c0,0.01,0,0.03,0.01,0.04c0.01,0.01,0.02,0.02,0.04,0.02c0,0,0,0,0.01,0
			c0,0-0.01,0-0.01,0c-0.01,0-0.02-0.01-0.02-0.01c-0.01,0-0.01-0.01-0.01-0.02C6.47,1.53,6.46,1.52,6.46,1.52z M6.47,1.24
			c0,0.01,0.01,0.01,0.01,0.01c0.01,0,0.02,0,0.03,0l0.02-0.01c0.01,0,0.01-0.01,0.02-0.01c0.01-0.01,0.03-0.01,0.03-0.01
			c0.02,0,0.04,0.01,0.07,0.04C6.68,1.29,6.7,1.3,6.72,1.3l0.01-0.04C6.71,1.26,6.69,1.25,6.68,1.25c-0.01,0-0.02-0.01-0.02-0.01
			C6.63,1.23,6.62,1.22,6.61,1.2C6.6,1.2,6.59,1.19,6.59,1.17L6.57,1.14C6.56,1.11,6.54,1.09,6.53,1.09c0,0,0,0-0.01,0.01
			C6.51,1.11,6.51,1.12,6.51,1.13c0,0.01,0.01,0.02,0.02,0.03l0,0l0,0l0,0c0,0,0,0,0,0c0,0,0,0.01,0,0.01c0,0,0,0,0,0
			c0,0,0.01,0,0.01,0c0,0,0,0,0,0.01c0,0,0,0,0,0.01c0,0,0,0-0.01,0c0,0,0,0-0.01,0c-0.01,0-0.01-0.01-0.01-0.01c0,0,0,0-0.01,0l0,0
			l-0.01,0l-0.01,0c-0.01,0-0.01,0.01-0.02,0.02c0,0.01,0,0.01-0.01,0.02C6.47,1.22,6.47,1.23,6.47,1.24z M6.47,1.47
			c0.01,0,0.01,0,0.01,0l0,0c0,0,0,0,0,0l0,0C6.48,1.47,6.47,1.47,6.47,1.47z M6.5,1.09L6.5,1.09C6.49,1.1,6.49,1.11,6.49,1.12
			C6.49,1.11,6.5,1.1,6.5,1.09z M6.51,1.11c0,0,0-0.01,0.01-0.01C6.51,1.1,6.51,1.1,6.51,1.11C6.51,1.1,6.51,1.11,6.51,1.11z
			 M6.51,1.16L6.51,1.16L6.51,1.16C6.51,1.16,6.51,1.16,6.51,1.16z M6.54,1.18L6.54,1.18L6.54,1.18C6.53,1.18,6.53,1.18,6.54,1.18
			L6.54,1.18C6.53,1.18,6.53,1.18,6.54,1.18L6.54,1.18z M6.59,1.41c-0.02,0-0.03,0-0.04,0l-0.01,0c0.01,0,0.01,0,0.02,0
			C6.57,1.41,6.59,1.41,6.59,1.41L6.59,1.41z M6.57,1.54c0,0,0.01-0.01,0.01-0.01c0-0.01,0.01-0.02,0.02-0.04
			C6.6,1.47,6.6,1.46,6.61,1.46c0,0,0.01,0,0.01-0.01C6.6,1.46,6.59,1.47,6.59,1.48c0,0-0.01,0.01-0.01,0.01c0,0,0,0.01-0.01,0.02
			c0,0.01,0,0.01-0.01,0.02C6.56,1.54,6.55,1.55,6.55,1.56c0,0,0,0,0.01,0c0,0,0,0,0,0C6.56,1.55,6.56,1.54,6.57,1.54z M6.56,1.09
			C6.57,1.1,6.57,1.11,6.58,1.13l0.01,0.02c0-0.01,0-0.02,0-0.02c0-0.01-0.01-0.02-0.01-0.03C6.57,1.1,6.57,1.1,6.56,1.09
			C6.57,1.1,6.56,1.1,6.56,1.09z M6.57,1.24L6.57,1.24L6.57,1.24c0.01,0,0.01,0,0.01,0c0.01,0,0.02,0.01,0.04,0.01
			C6.61,1.25,6.59,1.24,6.58,1.24C6.58,1.24,6.57,1.24,6.57,1.24z M6.61,1.19L6.61,1.19c0-0.01-0.01-0.02-0.01-0.03
			c0-0.01,0-0.02-0.01-0.02c0-0.01,0-0.01-0.01-0.01c0,0,0,0,0,0.01c0,0,0,0.01,0,0.01c0,0.01,0,0.01,0,0.02c0,0,0,0.01,0,0.01
			C6.6,1.18,6.61,1.18,6.61,1.19z M6.6,1.49c0.01-0.01,0.02-0.02,0.03-0.03c0.01-0.01,0.03-0.01,0.04-0.02l-0.01,0
			C6.65,1.45,6.63,1.46,6.62,1.47C6.61,1.47,6.61,1.48,6.6,1.49z M6.7,1.15L6.68,1.13L6.66,1.1C6.65,1.1,6.64,1.09,6.64,1.08
			C6.63,1.07,6.63,1.06,6.63,1.05c0-0.02,0.01-0.06,0.03-0.1C6.63,0.99,6.61,1.03,6.63,1.07C6.63,1.08,6.65,1.1,6.68,1.13L6.7,1.15z
			 M6.67,1.09C6.66,1.07,6.66,1.04,6.66,1.01c0-0.02,0.01-0.04,0.01-0.06C6.65,0.99,6.64,1.02,6.64,1.04
			C6.64,1.06,6.65,1.08,6.67,1.09L6.67,1.09C6.67,1.09,6.67,1.09,6.67,1.09z M6.7,1.38C6.69,1.38,6.69,1.38,6.7,1.38
			C6.68,1.39,6.67,1.39,6.65,1.39l-0.01,0c0.01,0,0.01,0,0.01,0C6.68,1.39,6.69,1.39,6.7,1.38z M6.91,1.31
			c0-0.01-0.01-0.02-0.01-0.03c0,0,0-0.01,0-0.01c0,0,0.01,0,0.01,0L6.92,1.3c0-0.01,0-0.02,0-0.03c0,0,0,0,0,0c0,0,0,0,0,0
			c0,0.01,0,0.02,0,0.04l0.02,0c0,0,0,0,0,0c0,0,0,0,0,0l-0.02,0l0,0c0.01,0,0.03,0.01,0.04,0.01c0,0,0,0,0,0l0-0.01L6.96,1.31
			L6.95,1.3c0-0.01,0-0.01,0-0.01c0,0,0-0.01,0-0.01c0,0,0-0.01,0-0.01c0-0.01,0-0.02,0-0.03c0-0.01,0-0.02,0-0.04
			c0.01-0.02,0.02-0.04,0.04-0.07l0.01-0.01l0,0c0.02-0.03,0.03-0.05,0.03-0.06c0.01-0.01,0.01-0.03,0.01-0.04c0-0.01,0-0.03,0-0.05
			l0-0.01c0-0.01-0.01-0.02-0.01-0.03C7.01,0.91,6.99,0.89,6.97,0.88C6.94,0.87,6.91,0.86,6.88,0.85c-0.04,0-0.07,0-0.11,0.01
			C6.76,0.87,6.74,0.88,6.72,0.89C6.69,0.92,6.67,0.96,6.67,1.01c0,0.03,0,0.06,0.01,0.09C6.69,1.11,6.7,1.12,6.72,1.14
			C6.74,1.17,6.76,1.19,6.76,1.2c0,0.01,0,0.03,0,0.06c0,0.01,0,0.02-0.01,0.04c0,0.02-0.01,0.03-0.01,0.03
			C6.74,1.35,6.74,1.37,6.74,1.39c0,0.02,0.01,0.03,0.02,0.04c0.02,0.01,0.06,0.02,0.11,0.02c0.02,0,0.03,0,0.05-0.01
			c0.01-0.01,0.03-0.01,0.04-0.02C6.97,1.42,6.97,1.41,6.98,1.4c0,0,0,0,0-0.01c0,0,0,0,0-0.01c0-0.02,0-0.04-0.01-0.06
			c0,0,0,0,0,0.01c0,0,0,0-0.01,0c0,0,0,0-0.01,0c-0.01,0-0.01,0-0.02,0c0,0.01,0,0.02,0,0.03c0,0,0,0.01-0.01,0.01
			c0,0-0.01,0-0.01-0.01c0,0,0,0,0,0.01c0,0,0,0,0,0c0,0,0,0,0,0c0-0.01,0-0.01,0-0.02c0,0,0-0.01,0-0.01c-0.01,0-0.03,0-0.04,0
			c0,0.01,0.01,0.03,0.01,0.04c0,0,0,0.01-0.01,0.01c0,0,0,0-0.01,0c0,0,0,0,0,0l0,0c0,0,0,0,0,0c0-0.01,0-0.02-0.01-0.03
			c-0.01,0-0.03,0.01-0.04,0.01l0,0c0.01,0.01,0.01,0.03,0.02,0.05c0,0,0,0.01,0,0.01c0,0-0.01,0-0.01,0L6.82,1.36
			c0,0.01,0,0.02,0.01,0.03c0,0,0,0,0,0c0,0,0,0,0,0c0-0.01,0-0.02-0.01-0.04l0,0l-0.01,0c0,0,0,0.01,0,0.01c0,0,0,0.01,0,0.01
			c0,0,0,0.01,0,0.01c0,0,0,0,0,0c0,0,0,0,0,0c0,0,0-0.01,0-0.01c0-0.01,0-0.01,0-0.01l0,0c0,0-0.01,0.01-0.02,0.01
			C6.78,1.38,6.77,1.38,6.77,1.38c0,0,0,0,0,0l0,0c0,0,0,0,0,0c0,0,0,0,0,0c0,0,0-0.01,0-0.01C6.77,1.36,6.78,1.35,6.8,1.34
			c0-0.01-0.01-0.01-0.01-0.02c0,0,0,0,0,0c0,0,0,0,0,0c0,0-0.01-0.01-0.01-0.01c0,0,0-0.01,0-0.01c0,0,0.01,0,0.01,0
			C6.8,1.3,6.81,1.31,6.81,1.31c0-0.01,0-0.01-0.01-0.02c0,0,0,0,0,0c0,0,0,0,0,0c0,0.01,0.01,0.02,0.01,0.03l0,0
			c0.01-0.01,0.03-0.01,0.04-0.01c0,0,0-0.01-0.01-0.01c0,0,0,0,0,0c0-0.01-0.01-0.01-0.01-0.02c0,0,0-0.01,0-0.01
			c0,0,0.01,0,0.01,0C6.86,1.29,6.87,1.3,6.87,1.31l0,0c0-0.01-0.01-0.02-0.01-0.03c0,0,0,0,0,0c0,0,0,0,0,0
			c0.01,0.01,0.01,0.02,0.01,0.03C6.89,1.31,6.9,1.31,6.91,1.31L6.91,1.31z M6.7,1.31L6.7,1.31C6.71,1.31,6.7,1.31,6.7,1.31z
			 M6.74,0.99C6.76,1.01,6.78,1.03,6.8,1.05C6.82,1.09,6.82,1.12,6.8,1.14C6.8,1.15,6.79,1.16,6.78,1.16
			c-0.01,0-0.03-0.01-0.04-0.02C6.73,1.13,6.72,1.11,6.71,1.09C6.71,1.07,6.7,1.05,6.71,1.03c0-0.02,0.01-0.03,0.02-0.04
			c0,0,0,0,0,0L6.74,0.99C6.73,0.99,6.73,0.99,6.74,0.99C6.74,0.99,6.74,0.99,6.74,0.99z M6.73,1.32c0,0,0-0.01,0.01-0.03
			c0-0.02,0.01-0.03,0.01-0.04c0-0.02,0-0.04,0-0.05c0-0.01-0.01-0.03-0.03-0.05c0.01,0.02,0.02,0.03,0.02,0.05
			c0,0.01,0,0.02,0,0.04c0,0,0,0,0,0.01c0,0,0,0,0,0c0,0.01,0,0.03,0,0.04C6.74,1.31,6.73,1.32,6.73,1.32l0,0.01
			C6.73,1.33,6.73,1.33,6.73,1.32z M6.73,1.02L6.73,1.02C6.74,1.01,6.74,1.01,6.73,1.02c0-0.01-0.01-0.01-0.01,0l0,0
			c0,0.01,0,0.03,0,0.04l0,0c0-0.01,0.01-0.02,0.01-0.02L6.73,1.02C6.73,1.02,6.73,1.02,6.73,1.02C6.73,1.02,6.73,1.02,6.73,1.02z
			 M6.72,1.07c0,0,0,0.01,0,0.01c0,0.01,0,0.01,0.01,0.02c0,0,0,0,0,0.01c0,0,0,0,0,0c0,0,0,0,0-0.01c0,0,0,0,0,0l0,0c0,0,0,0,0,0
			c0,0,0,0,0-0.01l0-0.02l0,0l0,0c0,0,0,0,0,0.01c0,0,0,0,0,0c0,0,0,0,0,0L6.72,1.07L6.72,1.07C6.73,1.07,6.73,1.08,6.72,1.07
			L6.72,1.07z M6.73,1C6.73,1.01,6.73,1.01,6.73,1C6.72,1.01,6.72,1.01,6.73,1C6.73,1.01,6.73,1.01,6.73,1L6.73,1
			C6.73,1.01,6.73,1.01,6.73,1z M6.73,1.41c0-0.01,0-0.01,0-0.02c0-0.01,0-0.03,0-0.05l0,0c0,0.01,0,0.02-0.01,0.03
			C6.72,1.39,6.73,1.4,6.73,1.41L6.73,1.41z M6.74,1.05C6.74,1.05,6.74,1.05,6.74,1.05L6.74,1.05L6.74,1.05L6.74,1.05L6.74,1.05z
			 M6.74,1.04L6.74,1.04L6.74,1.04L6.74,1.04z M6.76,1.11L6.76,1.11L6.75,1.12c0,0,0,0,0,0l0,0l0,0c0,0,0,0,0,0
			c0.01,0.01,0.02,0.02,0.03,0.01c0,0,0,0,0,0c0,0,0,0,0,0c0,0,0,0,0,0l0,0c0,0,0,0,0-0.01c0,0,0,0-0.01,0c0,0,0,0,0,0c0,0,0,0,0,0
			l0,0c0,0,0,0,0,0c0,0,0,0,0,0c0,0,0,0,0,0c0,0,0,0,0,0C6.76,1.12,6.76,1.12,6.76,1.11L6.76,1.11L6.76,1.11z M6.78,1.1
			C6.78,1.1,6.78,1.1,6.78,1.1C6.79,1.1,6.79,1.1,6.78,1.1C6.79,1.1,6.79,1.09,6.79,1.09c0-0.02-0.01-0.03-0.02-0.04
			C6.76,1.03,6.76,1.03,6.75,1.02l0,0.01c0,0,0,0.01,0.01,0.01l0,0c0,0,0,0,0,0l0,0c0,0,0,0,0,0c0,0,0,0,0,0c0,0,0,0,0,0
			c0,0,0,0,0,0c0,0,0,0,0,0c0,0,0,0,0,0c0,0,0,0,0.01,0.01c0,0,0,0.01,0,0.02l0,0.01l0,0.01l0,0c0,0,0,0,0-0.01c0,0,0-0.01,0-0.01
			c0,0,0,0,0-0.01c0,0,0,0,0.01,0c0,0,0,0,0,0c0,0,0,0,0,0c0,0,0,0,0,0.01l0,0l0,0l0,0c0,0,0,0,0,0C6.78,1.09,6.78,1.09,6.78,1.1
			L6.78,1.1z M6.75,1.06L6.75,1.06c0,0,0,0.01,0,0.01l0,0.01C6.75,1.07,6.75,1.07,6.75,1.06L6.75,1.06z M6.75,1.1L6.75,1.1L6.75,1.1
			L6.75,1.1z M6.77,1.38c0.01,0,0.01-0.01,0.02-0.01L6.8,1.36l0.01,0C6.79,1.36,6.78,1.37,6.77,1.38L6.77,1.38z M6.8,1.13
			c0.01-0.02,0.01-0.04-0.01-0.07c0-0.01-0.01-0.01-0.02-0.02l0,0.01C6.78,1.06,6.79,1.07,6.8,1.09C6.8,1.1,6.8,1.12,6.8,1.13
			L6.8,1.13z M6.78,1.14C6.78,1.14,6.78,1.14,6.78,1.14c0.01,0,0.01-0.01,0.01-0.02c0,0,0-0.01,0-0.01l0,0.01L6.78,1.14
			C6.79,1.14,6.79,1.14,6.78,1.14z M6.8,1.31c0,0.01,0.01,0.01,0.01,0.02l0,0C6.8,1.33,6.8,1.32,6.8,1.31z M6.82,1.23
			C6.82,1.21,6.83,1.2,6.83,1.19c0-0.01,0.01-0.02,0.01-0.02c0,0,0,0,0,0c0,0,0.01,0,0.01,0c0,0,0.01,0,0.01,0.01
			c0,0,0.01,0.01,0.01,0.02c0,0.01,0.01,0.01,0.01,0.02c0,0,0,0,0,0c0,0,0,0,0,0l0,0c0,0,0,0.01,0,0.01c0,0-0.01,0-0.01,0L6.88,1.21
			l0-0.01C6.87,1.19,6.86,1.18,6.85,1.18c0,0,0,0.01-0.01,0.02C6.84,1.21,6.84,1.22,6.83,1.23c0,0,0,0.01,0,0.02c0,0,0,0,0,0
			c0,0,0,0,0,0l0-0.01c0,0,0,0-0.01,0C6.82,1.24,6.82,1.24,6.82,1.23L6.82,1.23C6.82,1.23,6.82,1.23,6.82,1.23z M6.86,1.32
			c-0.01,0-0.02,0.01-0.04,0.01l0,0c0.01,0,0.01,0,0.02-0.01C6.85,1.33,6.85,1.33,6.86,1.32z M6.88,0.96
			c0.02,0.01,0.05,0.03,0.06,0.06c0.02,0.04,0.02,0.07,0.01,0.09C6.94,1.12,6.93,1.13,6.92,1.13c-0.01,0-0.03-0.01-0.04-0.02
			C6.87,1.09,6.86,1.08,6.86,1.06C6.85,1.03,6.85,1.02,6.85,1c0-0.02,0.01-0.03,0.02-0.04c0,0,0,0,0,0L6.88,0.96
			C6.88,0.95,6.88,0.96,6.88,0.96C6.88,0.96,6.88,0.96,6.88,0.96z M7.04,0.92c0-0.02-0.01-0.03-0.02-0.04
			C7.01,0.87,7,0.86,6.99,0.86c0,0-0.01,0-0.01,0l-0.01,0c-0.01,0-0.02,0-0.02-0.01c0,0-0.01,0-0.01,0c-0.02,0-0.04,0-0.05-0.01
			c-0.01,0-0.02,0-0.03,0c0.01,0,0.02,0,0.03,0c0.03,0,0.06,0.01,0.09,0.03C7,0.88,7.02,0.9,7.04,0.92z M6.85,1.18
			c0,0,0.01,0,0.01,0.01C6.87,1.18,6.86,1.18,6.85,1.18C6.86,1.18,6.86,1.17,6.85,1.18L6.85,1.18L6.85,1.18
			C6.86,1.17,6.85,1.18,6.85,1.18z M6.86,1.33L6.86,1.33L6.86,1.33L6.86,1.33z M6.87,0.97C6.87,0.98,6.86,0.99,6.86,1
			c0,0.01,0,0.01,0,0.02c0-0.02,0.01-0.03,0.02-0.04c0,0,0,0,0,0c0,0,0,0,0,0l0,0c0,0,0,0,0,0C6.89,0.98,6.88,0.97,6.87,0.97z
			 M6.88,1.04C6.87,1.04,6.87,1.04,6.88,1.04L6.88,1.04C6.87,1.04,6.87,1.04,6.88,1.04C6.87,1.04,6.87,1.04,6.88,1.04L6.88,1.04
			L6.88,1.04L6.88,1.04z M6.88,1.05L6.88,1.05C6.87,1.05,6.87,1.05,6.88,1.05C6.87,1.05,6.87,1.05,6.88,1.05
			C6.87,1.05,6.87,1.05,6.88,1.05c-0.01,0,0,0.01,0,0.01l0,0l0,0C6.87,1.06,6.87,1.06,6.88,1.05C6.88,1.06,6.88,1.06,6.88,1.05
			L6.88,1.05z M6.87,1.02c0,0,0-0.01,0-0.01l0-0.01C6.87,1,6.87,1.01,6.87,1.02z M6.88,1.08c0,0.01,0.01,0.01,0.01,0.02l0,0
			c0,0,0,0,0,0l0,0C6.89,1.08,6.89,1.08,6.88,1.08L6.88,1.08C6.88,1.08,6.88,1.08,6.88,1.08z M6.88,1.32L6.88,1.32
			c0.01,0,0.03,0,0.04,0l0,0C6.91,1.32,6.89,1.32,6.88,1.32z M6.88,1.04c0,0,0.01-0.01,0.01-0.01L6.88,1.04L6.88,1.04z M6.89,1.07
			C6.89,1.07,6.89,1.08,6.89,1.07C6.9,1.08,6.9,1.08,6.89,1.07L6.89,1.07L6.89,1.07C6.9,1.07,6.9,1.07,6.89,1.07L6.89,1.07
			L6.89,1.07C6.9,1.07,6.9,1.07,6.89,1.07C6.9,1.06,6.9,1.06,6.9,1.05l0,0c0,0,0,0,0,0C6.9,1.06,6.9,1.06,6.89,1.07
			C6.89,1.07,6.89,1.07,6.89,1.07z M6.91,1C6.91,0.99,6.91,0.99,6.91,1C6.9,0.99,6.9,0.99,6.89,0.99l0,0l0,0c0,0,0,0,0,0
			c0,0,0,0,0,0c0,0,0,0,0,0l0,0l0,0C6.9,1,6.9,1,6.91,1C6.9,1,6.9,1,6.91,1C6.91,1,6.91,1,6.91,1L6.91,1z M6.9,1.1
			c0,0.01,0.01,0.01,0.01,0.01c0.01,0,0.01,0,0.02,0c0.01,0,0.01-0.01,0.01-0.03c0-0.01,0-0.02,0-0.03c0,0.01,0,0.01,0,0.02
			c0,0,0,0.01-0.01,0.01c0,0,0,0,0,0c0,0,0,0,0,0l0,0c0,0,0,0,0,0c0,0,0,0,0,0c0,0,0,0,0,0c0,0-0.01,0-0.01,0c0,0,0,0,0,0
			c0,0,0,0,0,0c0,0,0,0,0,0c0,0,0-0.01,0-0.01l0,0l0,0C6.9,1.1,6.9,1.1,6.9,1.1C6.9,1.1,6.9,1.1,6.9,1.1z M6.91,1
			C6.91,1,6.91,1,6.91,1c0,0.01,0,0.01,0,0.02c0,0,0,0,0,0l0,0c0,0,0,0,0,0c0,0,0,0,0,0c0,0,0,0,0.01,0c0,0,0,0,0,0
			c0,0,0,0.01,0,0.02c0,0,0,0.01,0,0.01c0,0,0,0,0,0.01l0,0c0,0,0,0,0,0l0,0c0,0,0,0,0,0c0,0,0,0,0,0.01c0,0,0,0,0,0
			c0-0.01,0-0.03-0.01-0.06c0,0,0,0,0,0L6.91,1z M6.91,1.09L6.91,1.09C6.91,1.09,6.91,1.09,6.91,1.09L6.91,1.09z M6.92,1.1
			C6.92,1.1,6.93,1.1,6.92,1.1L6.92,1.1L6.92,1.1C6.93,1.09,6.93,1.09,6.92,1.1C6.93,1.09,6.93,1.09,6.92,1.1L6.92,1.1L6.92,1.1z
			 M6.95,1.09c0-0.01,0-0.02,0-0.04C6.95,1.06,6.95,1.07,6.95,1.09C6.95,1.08,6.95,1.08,6.95,1.09z M6.95,1.21c0,0,0-0.01,0.01-0.02
			c0-0.01,0.01-0.02,0.01-0.02c0,0,0-0.01,0-0.01C6.96,1.17,6.96,1.18,6.96,1.19C6.95,1.2,6.95,1.21,6.95,1.21z M6.99,1.37
			c0,0,0-0.01,0-0.01c0-0.01,0-0.01,0-0.01l0-0.01c0-0.01,0-0.01,0-0.02c0,0-0.01-0.02-0.01-0.03C6.98,1.28,6.97,1.27,6.97,1.27
			C6.96,1.26,6.96,1.26,6.96,1.25c0,0,0,0.01,0,0.01c0,0,0,0.01,0,0.01l0,0.01c0,0,0,0.01,0,0.01c0,0,0,0.01,0,0.01l0.01,0.01
			c0,0.01,0,0.01,0.01,0.01C6.99,1.34,6.99,1.36,6.99,1.37z M6.97,1.25C6.97,1.24,6.96,1.23,6.96,1.22c0,0.01,0,0.01,0,0.01
			c0,0.01,0.01,0.02,0.02,0.03l0,0.01c0,0,0-0.01,0-0.01C6.97,1.26,6.97,1.26,6.97,1.25C6.97,1.25,6.97,1.25,6.97,1.25z M6.97,1.2
			L6.97,1.2c0-0.02,0.01-0.03,0.01-0.04C6.99,1.15,7,1.14,7.01,1.12C7.02,1.11,7.02,1.1,7.03,1.09c0.01-0.02,0.02-0.04,0.03-0.05
			c0,0,0,0.01,0,0.01l0,0c0,0,0,0.01,0,0.01c0,0.01-0.02,0.03-0.04,0.07C6.99,1.16,6.98,1.18,6.97,1.2z M7.01,1.45
			C7,1.45,6.99,1.44,6.98,1.44l0,0C6.99,1.44,7,1.45,7.01,1.45L7.01,1.45z M6.99,1.42L6.99,1.42L6.99,1.42C6.99,1.42,7,1.41,7,1.41
			l0,0l0,0c0,0,0,0-0.01,0.01l0,0L6.99,1.42C6.99,1.42,6.99,1.42,6.99,1.42z M6.99,1.27L7,1.3c0,0,0,0,0,0l0,0
			C7,1.29,7,1.28,6.99,1.27z M7.19,1.53c0.01,0,0.02,0,0.02,0c0.01,0,0.01,0,0.02-0.01c0-0.01,0-0.01,0-0.02l0,0
			c0-0.01-0.01-0.01-0.02-0.02c-0.01,0-0.02-0.01-0.04-0.01c0,0-0.01,0-0.01,0c-0.01,0-0.02,0.01-0.03,0.01
			c-0.03,0-0.07-0.02-0.1-0.05L7.01,1.41C7,1.42,7,1.42,7,1.42c0.01,0,0.01,0.01,0.02,0.02c0.02,0.01,0.03,0.03,0.04,0.04
			C7.06,1.49,7.06,1.5,7.07,1.5c0.01,0.01,0.02,0.02,0.02,0.03c0,0.01,0,0.01,0.01,0.03L7.1,1.58c0,0.01,0.01,0.02,0.01,0.02
			c0.01,0,0.02,0,0.02,0c0.01,0,0.01-0.01,0.01-0.02c0-0.02,0-0.04,0-0.05l0,0l0,0l0,0l0,0c0,0,0,0,0,0l0-0.01c0,0,0,0,0-0.01
			c0,0,0,0,0,0c0,0,0.01,0,0.01,0c0,0,0,0,0,0l0,0c0,0,0,0,0,0c0.01,0,0.01,0,0.02,0C7.18,1.52,7.18,1.52,7.19,1.53z M7.21,1.19
			c-0.01,0-0.02,0-0.03,0c0,0,0,0-0.01,0c0,0-0.01,0-0.01,0c0,0,0-0.01,0-0.01l0,0l0,0c0,0,0,0,0,0l0,0
			C7.19,1.16,7.2,1.15,7.21,1.13c0-0.01-0.01-0.02-0.02-0.02C7.18,1.1,7.17,1.1,7.16,1.1c-0.01,0-0.01,0.01-0.02,0.02
			c0,0.01-0.01,0.01-0.01,0.02c0,0.01-0.01,0.01-0.01,0.01c0,0.01,0,0.01-0.01,0.02C7.11,1.2,7.09,1.22,7.06,1.23
			C7.03,1.25,7.01,1.25,7,1.26l0,0c0.01,0.01,0.02,0.02,0.02,0.03c0.01-0.01,0.03-0.02,0.05-0.03C7.09,1.25,7.1,1.24,7.12,1.24
			c0.01,0,0.03,0,0.06,0c0.02,0,0.04,0,0.05-0.01c0.01,0,0.01-0.01,0.01-0.01c0,0,0-0.01-0.01-0.01l0,0C7.22,1.2,7.22,1.2,7.21,1.19
			C7.21,1.2,7.21,1.2,7.21,1.19z M7.01,1.39C7.01,1.39,7.01,1.39,7.01,1.39C7.01,1.39,7.01,1.39,7.01,1.39L7.01,1.39
			C7.01,1.39,7.01,1.39,7.01,1.39L7.01,1.39L7.01,1.39z M7.01,1.3C7.01,1.3,7.01,1.3,7.01,1.3L7.01,1.3L7.01,1.3z M7.01,1.38
			C7.01,1.38,7.01,1.38,7.01,1.38L7.01,1.38c0.01-0.01,0.01-0.02,0-0.04l0,0C7.02,1.35,7.02,1.37,7.01,1.38L7.01,1.38z M7.19,1.46
			c0,0-0.01,0-0.01,0c0,0-0.01,0-0.02,0c-0.01,0-0.02,0-0.02,0c-0.01,0-0.01,0-0.02,0c-0.01,0-0.01,0-0.02,0
			C7.08,1.44,7.05,1.42,7.02,1.4c0,0,0,0,0,0l0,0C7.04,1.42,7.07,1.44,7.1,1.45c0.01,0,0.01,0,0.02,0.01c0.01,0,0.02,0,0.03,0
			c0.01,0,0.02,0,0.03,0l0,0l0,0C7.18,1.46,7.19,1.46,7.19,1.46z M7.02,1.3c0.01,0,0.02-0.01,0.03-0.02
			C7.04,1.28,7.03,1.29,7.02,1.3L7.02,1.3z M7.04,1.3c0,0-0.01,0-0.01,0.01c0,0,0,0,0,0L7.04,1.3z M7.05,1.01l0,0.02
			C7.06,1.01,7.07,1,7.07,0.98c0-0.02,0-0.03,0-0.04c0-0.02-0.01-0.03-0.02-0.05c0,0-0.01-0.01-0.02-0.01
			C7.04,0.9,7.05,0.92,7.05,0.95C7.06,0.97,7.06,0.99,7.05,1.01z M7.04,1.3c0.04-0.02,0.08-0.04,0.1-0.04c-0.02,0-0.04,0-0.05,0.01
			c-0.01,0-0.02,0.01-0.03,0.02C7.05,1.29,7.05,1.3,7.04,1.3z M7.07,1.54c0.01,0.02,0.02,0.04,0.03,0.05l0,0c0,0,0-0.01-0.01-0.03
			c0-0.01,0-0.02,0-0.02c0-0.01-0.01-0.01-0.02-0.02L7.06,1.5l0,0.01C7.06,1.52,7.06,1.52,7.07,1.54z M7.14,1.47
			c-0.02,0-0.04-0.01-0.05-0.01C7.11,1.47,7.12,1.47,7.14,1.47C7.14,1.47,7.14,1.47,7.14,1.47z M7.12,1.14
			C7.11,1.16,7.11,1.17,7.1,1.17c0,0,0-0.01,0.01-0.01C7.11,1.16,7.12,1.15,7.12,1.14z M7.12,1.25c0.01,0,0.02,0,0.03,0
			C7.14,1.24,7.13,1.24,7.12,1.25L7.12,1.25z M7.16,1.56c0,0.01,0,0.02,0,0.03c0,0.02-0.01,0.03-0.03,0.03c0.01,0,0.02,0,0.02-0.01
			C7.16,1.6,7.17,1.59,7.17,1.58l0-0.01L7.16,1.56z M7.14,1.62c0.01,0,0.02,0,0.03,0C7.17,1.61,7.18,1.6,7.18,1.59
			c0-0.01,0-0.02-0.01-0.04c0,0,0,0.01,0,0.01c0,0,0,0.01,0,0.01c0,0.01,0,0.01,0,0.01c0,0.01,0,0.03-0.01,0.04
			C7.16,1.62,7.15,1.62,7.14,1.62z M7.21,1.18C7.21,1.18,7.21,1.18,7.21,1.18C7.21,1.17,7.21,1.17,7.21,1.18l0-0.01c0,0,0,0,0-0.01
			c0.01-0.02,0.01-0.03,0.01-0.04c0-0.02,0-0.03,0-0.04C7.22,1.07,7.2,1.07,7.18,1.07c-0.01,0-0.03,0.01-0.04,0.03l0,0
			c0.01-0.01,0.02-0.02,0.04-0.02c0.02,0,0.03,0,0.04,0.02c0.01,0.01,0.01,0.02,0,0.04l0,0.01c0,0,0,0,0,0.01c0,0,0,0.01-0.01,0.01
			c0,0,0,0,0,0C7.2,1.17,7.2,1.17,7.21,1.18L7.21,1.18z M7.17,1.26c0,0,0.01,0,0.01,0c0,0,0.01,0,0.01,0c0.02,0,0.03,0,0.04,0
			c-0.01,0-0.02,0-0.03,0C7.19,1.26,7.18,1.26,7.17,1.26z M7.18,1.54L7.18,1.54C7.19,1.55,7.19,1.55,7.2,1.55c0,0-0.01,0-0.01-0.01
			C7.18,1.54,7.18,1.54,7.18,1.54z M7.21,1.12c0-0.01,0-0.01,0-0.02c0-0.01-0.01-0.01-0.03-0.01l-0.01,0
			C7.2,1.1,7.21,1.11,7.21,1.12z M7.2,1.47c0,0,0.01,0,0.01,0C7.21,1.47,7.2,1.47,7.2,1.47z M7.24,1.49c0,0,0-0.01-0.01-0.01
			c0-0.01-0.01-0.01-0.02-0.01l0,0c0,0,0.01,0,0.01,0.01C7.23,1.47,7.23,1.48,7.24,1.49C7.24,1.48,7.24,1.49,7.24,1.49z M7.22,1.25
			c0.01,0,0.01,0,0.01-0.01C7.23,1.25,7.23,1.25,7.22,1.25z"/>
	</g>
</g>
</svg>
